<?xml version="1.0" standalone="no"?>
<!DOCTYPE svg PUBLIC "-//W3C//DTD SVG 1.1//EN" "http://www.w3.org/Graphics/SVG/1.1/DTD/svg11.dtd" >
<svg xmlns="http://www.w3.org/2000/svg">
<metadata>
This is a custom SVG webfont generated by Font Squirrel.
Copyright   : Freestyle Script is a trademark of Esselte Pendaflex Corporation in the USA of Letraset Canada Ltd in Canada and of Esselte Letraset Ltd elsewhere
</metadata>
<defs>
<font id="webfontkPxSRfGH" horiz-adv-x="1183" >
<font-face units-per-em="2048" ascent="1638" descent="-410" />
<missing-glyph horiz-adv-x="591" />
<glyph unicode=" "  horiz-adv-x="591" />
<glyph unicode="&#x09;" horiz-adv-x="591" />
<glyph unicode="&#xa0;" horiz-adv-x="591" />
<glyph unicode="!" horiz-adv-x="657" d="M330 205q49 0 84 -36t35 -83q0 -49 -35 -84t-84 -35t-84 35t-35 84q0 47 35 83t84 36zM238 356v1188h184v-1188h-184z" />
<glyph unicode="&#x22;" horiz-adv-x="899" d="M184 1544h201l-37 -672h-127zM514 1544h201l-37 -672h-127z" />
<glyph unicode="#" d="M444 1470h158l-74 -397h254l72 397h162l-72 -397h189v-164h-220l-55 -315h207v-164h-240l-77 -430h-156l76 430h-252l-82 -430h-154l76 430h-205v164h236l55 315h-215v164h244zM502 909l-56 -315h252l56 315h-252z" />
<glyph unicode="$" d="M682 715v-555q94 20 154.5 100t60.5 178q0 164 -215 277zM580 1577v184h102v-184q233 -23 350 -238l-162 -92q-59 113 -188 152v-481q184 -80 291.5 -190t107.5 -282q0 -168 -117.5 -312t-281.5 -167v-194h-102v194q-178 2 -313.5 127t-164.5 303l185 39 q27 -135 94.5 -203.5t198.5 -85.5v615l-74 37q-143 74 -219 155.5t-76 219.5q0 154 107.5 272.5t261.5 130.5zM580 967v432q-82 -12 -136.5 -71.5t-54.5 -139.5q1 -145 191 -221z" />
<glyph unicode="%" horiz-adv-x="1449" d="M395.5 1577q147.5 0 254 -103.5t106.5 -249t-107.5 -248t-253 -102.5t-253 102.5t-107.5 248t106.5 249t254 103.5zM395.5 1454q-96.5 0 -167 -67.5t-70.5 -161.5q0 -92 70.5 -160t167 -68t167 68t70.5 160q0 94 -70.5 161.5t-167 67.5zM1130 1577l93 -53l-901 -1557 l-95 51zM1056.5 670q147.5 0 254 -103.5t106.5 -249t-107.5 -248t-253 -102.5t-253 102.5t-107.5 248t106.5 249t254 103.5zM1057 547q-96 0 -167 -67.5t-71 -162.5q0 -92 71 -159.5t167 -67.5t166.5 67.5t70.5 159.5q0 94 -70.5 162t-166.5 68z" />
<glyph unicode="&#x26;" horiz-adv-x="1417" d="M588 762l-19 -12q-2 -2 -41 -29l-49 -34q-10 -7 -44 -33.5t-47 -40l-37.5 -40t-34 -47t-18.5 -48t-9 -54.5q0 -111 88 -198t198 -87q68 0 137.5 35t112.5 72t105 98zM629 1004l24 16l40 30q32 24 44.5 35t36 34.5t34.5 41t20.5 44t9.5 52.5q0 80 -50.5 124t-130.5 44 q-72 0 -122 -46t-50 -117q0 -37 16.5 -75t30 -57.5t46.5 -60.5zM1212 0l-168 209q-205 -242 -462 -242q-197 0 -335 129t-138 326q0 133 68.5 223t201.5 186l96 70q-170 178 -170 338q0 156 100.5 247t256.5 91q147 0 251.5 -87t104.5 -235q0 -61 -23.5 -117.5t-70.5 -106.5 t-86 -83t-101 -78l322 -389l180 209l123 -127l-188 -221l276 -342h-238z" />
<glyph unicode="'" horiz-adv-x="567" d="M184 1544h201l-37 -672h-127z" />
<glyph unicode="(" horiz-adv-x="598" d="M330 1657l151 -113q-176 -369 -176 -913.5t176 -913.5l-151 -112q-106 211 -159.5 484t-53.5 541.5t53.5 543t159.5 483.5z" />
<glyph unicode=")" horiz-adv-x="598" d="M117 1544l151 113q106 -209 159.5 -483.5t53.5 -543t-53 -541.5t-160 -484l-151 112q176 369 176 913.5t-176 913.5z" />
<glyph unicode="*" horiz-adv-x="884" d="M377 1544h141v-194l166 98l72 -121l-174 -102l174 -103l-72 -118l-166 102v-197h-141v199l-178 -100l-70 116l174 101l-172 102l64 117l182 -101v201z" />
<glyph unicode="+" d="M504 1049h176v-437h436v-176h-436v-436h-176v436h-436v176h436v437z" />
<glyph unicode="," horiz-adv-x="591" d="M336 244l160 -64l-273 -547l-112 48z" />
<glyph unicode="-" horiz-adv-x="679" d="M117 733h448v-153h-448v153z" />
<glyph unicode="." horiz-adv-x="591" d="M297 205q49 0 84 -36t35 -83q0 -49 -35 -84t-84 -35t-84 35t-35 84q0 47 35 83t84 36z" />
<glyph unicode="/" horiz-adv-x="1128" d="M918 1778l147 -66l-854 -1970l-145 65z" />
<glyph unicode="0" d="M592 -33q-115 0 -208 54.5t-153.5 138.5t-101.5 192.5t-58.5 214t-17.5 205.5q0 129 30 261t89 258t169 206t251 80t250.5 -80t169 -206t89 -258t29.5 -261q0 -100 -17 -205.5t-58 -214t-101.5 -192.5t-153.5 -138.5t-208 -54.5zM592 1413q-98 0 -171 -68.5t-111 -173 t-55 -206t-17 -191.5t17 -190.5t55 -205t111 -172t171 -67.5t171 67.5t110.5 172t55 205t17.5 190.5t-17.5 191.5t-55 206t-110.5 173t-171 68.5z" />
<glyph unicode="1" d="M520 1368h-268l106 176h347v-1544h-185v1368z" />
<glyph unicode="2" d="M467 176h623v-176h-998l676 829q137 168 137 277q0 121 -91 208t-212 87q-117 0 -203 -83t-94 -200h-192q23 209 152.5 334t336.5 125q201 0 344.5 -132t143.5 -331q0 -176 -115 -317z" />
<glyph unicode="3" d="M563 737v160q303 0 303 248q0 117 -75.5 190.5t-192.5 73.5q-104 0 -172 -60.5t-84 -160.5h-190q27 190 144.5 289.5t308 99.5t318.5 -113.5t128 -302.5q0 -238 -197 -348q219 -104 219 -383q0 -211 -140 -337t-353 -126q-188 0 -325.5 115t-145.5 299h186 q14 -111 99 -178.5t200 -67.5q127 0 211 88t84 215q0 145 -91.5 227t-234.5 72z" />
<glyph unicode="4" d="M961 393h176v-168h-176v-225h-185v225h-762l947 1385v-1217zM776 393v637h-4l-434 -637h438z" />
<glyph unicode="5" d="M1081 1368h-485l-96 -317l108 6q217 0 356.5 -160t139.5 -381q0 -242 -165 -395.5t-407 -153.5q-145 0 -275 73t-196 198l144 135q35 -96 136 -163t206 -67q156 0 264.5 112t108.5 267q0 150 -110 258.5t-259 108.5q-82 0 -161 -37t-128 -100h-37l238 792h618v-176z" />
<glyph unicode="6" d="M776 1577l139 -94l-411 -557l4 -4q74 37 151 36q186 0 316.5 -146t130.5 -337q0 -211 -149.5 -359.5t-360.5 -148.5q-203 0 -358.5 146.5t-155.5 347.5q0 182 168 407zM594 139q131 0 229.5 94.5t98.5 221.5q0 139 -100.5 235t-227.5 96t-227.5 -98t-100.5 -223 q0 -133 97.5 -229.5t230.5 -96.5z" />
<glyph unicode="7" d="M895 1368h-799v176h1112l-962 -1577l-150 92z" />
<glyph unicode="8" d="M592 721q-119 0 -209 -85t-90 -206q0 -115 92 -203t207 -88t207 88t92 203q0 121 -90 206t-209 85zM109 430q0 129 63.5 229.5t179.5 141.5q-203 115 -202 346q0 186 128 308t314 122t314 -122t128 -308q0 -231 -203 -346q117 -41 180.5 -141.5t63.5 -229.5 q0 -209 -140 -336t-343 -127t-343 127t-140 336zM591.5 1413q-104.5 0 -183 -78t-78.5 -188q0 -92 83 -177t179 -85t179 85t83 177q0 111 -79 188.5t-183.5 77.5z" />
<glyph unicode="9" d="M436 -33l-139 96l412 555l-4 5q-57 -29 -150 -29q-188 0 -318.5 143.5t-130.5 331.5q0 211 150 359.5t360 148.5q203 0 358.5 -146.5t155.5 -347.5q0 -182 -167 -407zM618 758q143 0 235.5 96t92.5 227q0 125 -95 224.5t-220 99.5q-139 0 -239.5 -96.5t-100.5 -227.5 q0 -133 101 -228t226 -95z" />
<glyph unicode=":" horiz-adv-x="591" d="M297 205q49 0 84 -36t35 -83q0 -49 -35 -84t-84 -35t-84 35t-35 84q0 47 35 83t84 36zM297 987q49 0 84 -36t35 -83q0 -49 -35 -83.5t-84 -34.5t-84 34.5t-35 83.5q0 47 35 83t84 36z" />
<glyph unicode=";" horiz-adv-x="591" d="M319 244l160 -64l-272 -547l-113 48zM393 987q49 0 84 -36t35 -83q0 -49 -35 -83.5t-84 -34.5t-84 34.5t-35 83.5q0 47 35 83t84 36z" />
<glyph unicode="&#x3c;" d="M1116 1020v-193l-786 -303l786 -303v-192l-1048 424v143z" />
<glyph unicode="=" d="M68 788h1048v-176h-1048v176zM68 436h1048v-176h-1048v176z" />
<glyph unicode="&#x3e;" d="M68 827v193l1048 -424v-143l-1048 -424v192l786 303z" />
<glyph unicode="?" horiz-adv-x="927" d="M614 707h187q6 -131 -96.5 -230.5t-235.5 -99.5q-137 0 -233.5 95t-96.5 233q0 131 67.5 193.5t190.5 107.5q10 4 41 15t43.5 15t39 15.5t36.5 18.5l31 21q20 13 28 25l19 29q10 16 14 34.5t4 41.5q0 84 -53 133t-135 49q-72 0 -124 -52.5t-52 -123.5q0 -20 12 -66h-192 l-5 68q-8 145 105 246.5t262 101.5q156 0 262.5 -104.5t106.5 -258.5q0 -160 -111 -253q-63 -55 -254 -115q-150 -45 -149 -150q0 -61 41 -104t102 -43q66 0 106.5 46t38.5 112zM469 205q49 0 84 -36t35 -83q0 -49 -35 -84t-84 -35t-84 35t-35 84q0 47 35 83t84 36z" />
<glyph unicode="@" horiz-adv-x="1638" d="M1030 762q14 123 -43 191.5t-166 68.5q-119 0 -194.5 -96.5t-75.5 -216.5q0 -94 56.5 -164t148.5 -70q127 0 192.5 81t81.5 206zM1081 1036l29 127h145l-102 -526q-18 -51 -17 -113.5t46 -62.5q74 0 147.5 123t73.5 270q0 254 -156.5 406.5t-396.5 152.5 q-258 0 -435 -187.5t-177 -453.5q0 -276 189 -458.5t458 -182.5q264 0 381 98l153 -123q-131 -70 -249.5 -104.5t-301.5 -34.5q-334 0 -564 229.5t-230 575.5q0 342 226 573.5t556 231.5q285 0 481 -178q229 -199 230 -471q0 -268 -127 -434q-70 -92 -154 -137.5t-162 -41.5 q-90 4 -110 127q-127 -127 -279 -127q-137 0 -240.5 112t-103.5 267q0 195 117 341.5t301 146.5q159 -1 272 -146z" />
<glyph unicode="A" horiz-adv-x="1439" d="M1075 387h-708l-177 -387h-206l737 1610l737 -1610h-207zM995 563l-274 625l-275 -625h549z" />
<glyph unicode="B" horiz-adv-x="1095" d="M324 1372v-512h49q160 0 246 53.5t86 204.5q0 150 -85 202t-243 52h-53zM324 707v-535h147q365 0 365 272q0 78 -36 132.5t-97.5 81t-125 38t-135.5 11.5h-118zM131 0v1544h188q119 0 213.5 -18.5t177.5 -62.5t129 -131t46 -212q0 -88 -45 -173t-121 -120v-4 q133 -25 221 -138.5t88 -252.5q0 -217 -155.5 -324.5t-380.5 -107.5h-361z" />
<glyph unicode="C" horiz-adv-x="1353" d="M1272 1473v-224q-170 152 -408 152q-256 0 -433 -185.5t-177 -445.5q0 -256 175 -441.5t431 -185.5q233 0 412 160v-227q-184 -109 -406 -109q-332 0 -568.5 231.5t-236.5 565.5q0 342 240 577.5t582 235.5q219 0 389 -104z" />
<glyph unicode="D" horiz-adv-x="1361" d="M131 0v1544h320q375 0 620.5 -197.5t245.5 -566.5q0 -379 -244 -579.5t-629 -200.5h-313zM324 1368v-1192h67q156 0 283 31t230.5 98.5t161.5 186t58 280.5q0 164 -58 283t-162.5 185.5t-230.5 97t-282 30.5h-67z" />
<glyph unicode="E" horiz-adv-x="1067" d="M147 0v1544h830v-176h-637v-432h618v-176h-618v-584h637v-176h-830z" />
<glyph unicode="F" horiz-adv-x="970" d="M893 1368h-555v-434h536v-176h-536v-758h-193v1544h748v-176z" />
<glyph unicode="G" horiz-adv-x="1597" d="M942 778h612v-61q0 -322 -204.5 -536t-526 -214t-551 238.5t-229.5 562.5q0 334 234.5 571.5t566.5 237.5q182 0 349 -79t280 -220l-136 -129q-84 115 -215 183.5t-270 68.5q-258 0 -437 -183.5t-179 -443.5q0 -248 177 -439.5t423 -191.5q184 0 341.5 137.5t163.5 321.5 h-399v176z" />
<glyph unicode="H" horiz-adv-x="1382" d="M324 922h735v622h192v-1544h-192v741h-735v-741h-193v1544h193v-622z" />
<glyph unicode="I" horiz-adv-x="475" d="M334 1544v-1544h-193v1544h193z" />
<glyph unicode="J" horiz-adv-x="741" d="M428 1544h193v-981q0 -125 -15.5 -220t-57.5 -186t-129 -140.5t-216 -49.5t-242 68l96 164q68 -51 154 -52q45 0 81 16.5t58.5 37t39 61.5t23.5 69.5t11 82t4 75.5v74v981z" />
<glyph unicode="K" horiz-adv-x="1228" d="M340 874l655 670h252l-694 -694l707 -850h-261l-581 719l-78 -74v-645h-193v1544h193v-670z" />
<glyph unicode="L" horiz-adv-x="788" d="M340 1544v-1368h469v-176h-662v1544h193z" />
<glyph unicode="M" horiz-adv-x="1742" d="M872 -33l-462 1053h-4l-181 -1020h-198l315 1610l530 -1217l531 1217l315 -1610h-198l-181 1020h-4z" />
<glyph unicode="N" horiz-adv-x="1607" d="M129 0v1618l1159 -1215v1141h193v-1607l-1159 1214v-1151h-193z" />
<glyph unicode="O" horiz-adv-x="1695" d="M848 1577q332 0 570.5 -236.5t238.5 -568.5q0 -342 -235.5 -573.5t-573.5 -231.5t-573.5 231.5t-235.5 573.5q0 332 238.5 568.5t570.5 236.5zM848 147q252 0 434 181.5t182 443.5q0 260 -175 442.5t-441 182.5t-441.5 -182.5t-175.5 -442.5q0 -262 182.5 -443.5 t434.5 -181.5z" />
<glyph unicode="P" horiz-adv-x="1013" d="M340 647v-647h-193v1544h222q342 0 482 -111.5t140 -334.5q0 -229 -150.5 -340t-389.5 -111h-111zM340 1372v-553h61q84 0 148.5 10.5t128 38t98.5 87t35 147.5q0 86 -37 143.5t-104.5 83t-131 34.5t-147.5 9h-51z" />
<glyph unicode="Q" horiz-adv-x="1695" d="M1655 -33h-234l-133 137q-199 -137 -440 -137q-338 0 -573.5 231.5t-235.5 573.5q0 332 238.5 568.5t570.5 236.5t570.5 -236.5t238.5 -568.5q0 -164 -63.5 -312.5t-178.5 -256.5zM1040 582l244 -242q86 76 133 195.5t47 236.5q0 260 -175 442.5t-441 182.5 t-441.5 -182.5t-175.5 -442.5q0 -262 182.5 -443.5t434.5 -181.5q168 0 307 89l-354 346h239z" />
<glyph unicode="R" horiz-adv-x="1112" d="M621 672l487 -672h-234l-454 653h-80v-653h-193v1544h234q88 0 142.5 -3t131 -19.5t133.5 -48.5q94 -55 148.5 -155.5t54.5 -213.5q0 -168 -102 -290t-268 -142zM340 1372v-559h61q84 0 148.5 10.5t128 38t98.5 87t35 147.5q0 276 -420 276h-51z" />
<glyph unicode="S" horiz-adv-x="1099" d="M987 1343l-153 -92q-86 145 -248 146q-98 0 -178 -61.5t-80 -157.5q0 -139 215 -222l110 -43q184 -72 283.5 -178t99.5 -286q0 -209 -142 -345.5t-351 -136.5q-186 0 -319.5 122t-157.5 310l194 41q-2 -125 85 -209t214 -84q123 0 204 89.5t81 212.5q0 113 -71 177 t-195 115l-107 45q-158 68 -247 156t-89 236q0 180 135.5 289.5t319.5 109.5q266 -1 397 -234z" />
<glyph unicode="T" horiz-adv-x="933" d="M563 1368v-1368h-192v1368h-367v176h926v-176h-367z" />
<glyph unicode="U" horiz-adv-x="1370" d="M121 1544h192v-911q0 -485 373 -485.5t373 485.5v911h192v-977q0 -262 -152.5 -431t-412.5 -169t-412.5 169t-152.5 431v977z" />
<glyph unicode="V" horiz-adv-x="1310" d="M197 1544l460 -1143l459 1143h211l-670 -1626l-671 1626h211z" />
<glyph unicode="W" horiz-adv-x="2103" d="M184 1544l432 -1106l437 1139l436 -1139l432 1106h209l-641 -1605l-436 1132l-437 -1132l-641 1605h209z" />
<glyph unicode="X" horiz-adv-x="1175" d="M485 809l-426 735h220l315 -563l336 563h219l-444 -735l469 -809h-216l-364 633l-379 -633h-215z" />
<glyph unicode="Y" horiz-adv-x="1173" d="M492 672l-504 872h221l379 -659l379 659h221l-504 -872v-672h-192v672z" />
<glyph unicode="Z" horiz-adv-x="1130" d="M332 176h782v-176h-1096l783 1368h-672v176h985z" />
<glyph unicode="[" horiz-adv-x="636" d="M313 1485v-1708h201v-172h-389v2052h389v-172h-201z" />
<glyph unicode="\" horiz-adv-x="1128" d="M63 1778h173l827 -1778h-172z" />
<glyph unicode="]" horiz-adv-x="636" d="M324 -223v1708h-201v172h389v-2052h-389v172h201z" />
<glyph unicode="^" d="M68 631l409 913h230l409 -913h-192l-332 741l-334 -741h-190z" />
<glyph unicode="_" horiz-adv-x="1024" d="M1024 -231v-154h-1024v154h1024z" />
<glyph unicode="`" horiz-adv-x="737" d="M156 1413l170 90l256 -340l-90 -55z" />
<glyph unicode="a" horiz-adv-x="1138" d="M541 131q145 0 228 100.5t83 247.5q0 145 -84 244.5t-227 99.5q-137 0 -220 -101t-83 -243q0 -143 82 -245.5t221 -102.5zM1026 958v-958h-184v150h-4q-123 -182 -326 -183q-211 0 -335 150.5t-124 367.5q0 205 125 353.5t328 148.5q207 0 332 -188h4v159h184z" />
<glyph unicode="b" horiz-adv-x="1138" d="M590 131q145 0 228 100.5t83 247.5q0 145 -84 244.5t-227 99.5q-137 0 -220 -101t-83 -243q0 -143 82 -245.5t221 -102.5zM113 0v1778h184v-979h4q125 188 334 188q201 0 325.5 -148.5t124.5 -353.5q0 -217 -122.5 -367.5t-335.5 -150.5q-98 0 -183.5 49.5t-142.5 133.5 h-4v-150h-184z" />
<glyph unicode="c" horiz-adv-x="903" d="M831 924v-238q-113 129 -274 129q-133 0 -226 -100.5t-93 -235.5q0 -147 93 -243.5t238 -96.5q150 0 262 127v-235q-119 -63 -264 -64q-213 0 -363.5 145.5t-150.5 358.5q0 221 150.5 368.5t374.5 147.5q144 0 253 -63z" />
<glyph unicode="d" horiz-adv-x="1138" d="M541 131q145 0 228 100.5t83 247.5q0 145 -84 244.5t-227 99.5q-137 0 -220 -101t-83 -243q0 -143 82 -245.5t221 -102.5zM842 0v150h-4q-57 -84 -142.5 -133.5t-183.5 -49.5q-213 0 -336 150.5t-123 367.5q0 205 125 353.5t326 148.5q209 0 334 -188h4v979h184v-1778 h-184z" />
<glyph unicode="e" horiz-adv-x="999" d="M969 449h-731q2 -129 81.5 -223.5t206.5 -94.5q100 0 165 46t122 140l156 -88q-68 -123 -185.5 -192.5t-259.5 -69.5q-215 0 -343 143.5t-128 360.5q0 229 121 372.5t346 143.5q219 0 334 -142.5t115 -367.5v-28zM248 588h536q-16 111 -85.5 175t-178.5 64 q-106 0 -181 -67.5t-91 -171.5z" />
<glyph unicode="f" horiz-adv-x="563" d="M602 1778v-187q-88 39 -123 39q-37 0 -63.5 -19.5t-38.5 -44t-19.5 -66.5t-8.5 -65.5t-1 -64.5v-412h254v-172h-254v-786h-184v786h-84v172h84v467q0 377 309 377q68 1 129 -24z" />
<glyph unicode="g" horiz-adv-x="1136" d="M539 131q145 0 228 100.5t83 247.5q0 145 -84 244.5t-227 99.5q-137 0 -220 -101t-83 -243q0 -143 82 -245.5t221 -102.5zM1024 958v-940q0 -272 -102.5 -419.5t-364.5 -147.5q-203 0 -332 117t-131 317h185q0 -127 78.5 -198.5t207.5 -71.5q158 0 216.5 92t58.5 260v183 h-4q-57 -84 -142.5 -133.5t-183.5 -49.5q-213 0 -336 150.5t-123 367.5q0 205 125 353.5t326 148.5q211 0 334 -192h4v163h184z" />
<glyph unicode="h" horiz-adv-x="1071" d="M127 1778h184v-949h4q41 76 120 117t169 41q188 0 264 -110.5t76 -305.5v-571h-184v549q0 141 -40 207.5t-171 66.5q-57 0 -100 -14t-68 -47t-40 -62.5t-21.5 -84t-7.5 -85t-1 -90.5v-440h-184v1778z" />
<glyph unicode="i" horiz-adv-x="520" d="M352 958v-958h-184v958h184zM260 1526q53 0 90 -38t37 -91q0 -51 -37 -88t-90 -37t-90 37t-37 88q0 53 37 91t90 38z" />
<glyph unicode="j" horiz-adv-x="520" d="M352 958v-1507h-184v1507h184zM260 1526q53 0 90 -38t37 -91q0 -51 -37 -88t-90 -37t-90 37t-37 88q0 53 37 91t90 38z" />
<glyph unicode="k" horiz-adv-x="946" d="M324 1778v-1180l360 360h244l-410 -397l451 -561h-240l-342 436l-63 -63v-373h-185v1778h185z" />
<glyph unicode="l" horiz-adv-x="454" d="M319 1778v-1778h-184v1778h184z" />
<glyph unicode="m" horiz-adv-x="1570" d="M305 958v-120h4q41 66 109.5 107.5t144.5 41.5q178 0 277 -170q45 78 124.5 124t170.5 46q317 0 317 -414v-573h-184v543q0 55 -5.5 97t-22.5 88t-55 70.5t-95.5 24.5t-97.5 -23.5t-61.5 -57t-33.5 -85t-15 -92.5t-3 -94v-471h-185v508q0 49 -2 82t-11 82t-26.5 77.5 t-52.5 51t-84 22.5q-70 0 -116 -31.5t-65.5 -90t-25.5 -109.5t-6 -121v-471h-184v958h184z" />
<glyph unicode="n" horiz-adv-x="1071" d="M311 958v-129h4q41 76 120 117t169 41q188 0 264 -110.5t76 -305.5v-571h-184v549q0 141 -40 207.5t-171 66.5q-57 0 -100 -14t-68 -47t-40 -62.5t-21.5 -84t-7.5 -85t-1 -90.5v-440h-184v958h184z" />
<glyph unicode="o" horiz-adv-x="1105" d="M553 987q215 0 363.5 -147.5t148.5 -362.5t-148.5 -362.5t-363.5 -147.5t-363.5 147.5t-148.5 362.5t148.5 362.5t363.5 147.5zM553 811q-135 0 -231.5 -98.5t-96.5 -235.5q0 -135 96.5 -234.5t231.5 -99.5t231.5 99.5t96.5 234.5q0 137 -96.5 235.5t-231.5 98.5z" />
<glyph unicode="p" horiz-adv-x="1138" d="M590 131q145 0 228 100.5t83 247.5q0 145 -84 244.5t-227 99.5q-137 0 -220 -101t-83 -243q0 -143 82 -245.5t221 -102.5zM297 958v-159h4q125 188 334 188q201 0 325.5 -148.5t124.5 -353.5q0 -217 -122.5 -367.5t-335.5 -150.5q-98 0 -183.5 49.5t-142.5 133.5h-4v-699 h-184v1507h184z" />
<glyph unicode="q" horiz-adv-x="1138" d="M541 131q145 0 228 100.5t83 247.5q0 145 -84 244.5t-227 99.5q-137 0 -220 -101t-83 -243q0 -143 82 -245.5t221 -102.5zM1026 958v-1507h-184v699h-4q-57 -84 -142.5 -133.5t-183.5 -49.5q-213 0 -336 150.5t-123 367.5q0 205 125 353.5t326 148.5q209 0 334 -188h4 v159h184z" />
<glyph unicode="r" horiz-adv-x="718" d="M324 958v-155h6q35 86 103.5 135t158.5 49q78 0 151 -47l-84 -168q-45 39 -112 39q-72 0 -119 -29.5t-68.5 -84t-28.5 -106.5t-7 -120v-471h-185v958h185z" />
<glyph unicode="s" horiz-adv-x="786" d="M662 819l-150 -80q-41 84 -123 84q-39 0 -69.5 -27.5t-30.5 -66.5q0 -18 5 -33.5t20 -28.5l27 -24q11 -10 37 -23l40 -21q14 -7 48 -21.5t46 -20.5q102 -47 161.5 -108.5t59.5 -163.5q0 -135 -97 -226.5t-233 -91.5q-109 0 -201.5 58.5t-129.5 156.5l157 72 q68 -123 174 -123q59 0 102.5 38t43.5 97.5t-68 104.5l-180 96q-94 51 -139 101t-45 141q0 117 83 197.5t199 80.5q181 0 263 -168z" />
<glyph unicode="t" horiz-adv-x="491" d="M338 786v-786h-184v786h-101v172h101v367h184v-367h180v-172h-180z" />
<glyph unicode="u" horiz-adv-x="1048" d="M119 958h184v-530q0 -133 48 -211t173 -78t173 78t48 211v530h185v-550q0 -205 -100.5 -323t-305.5 -118t-305 118t-100 323v550z" />
<glyph unicode="v" horiz-adv-x="911" d="M180 958l275 -598l276 598h207l-483 -991l-482 991h207z" />
<glyph unicode="w" horiz-adv-x="1470" d="M176 958l279 -610l282 664l281 -664l278 610h209l-487 -991l-281 641l-282 -641l-488 991h209z" />
<glyph unicode="x" horiz-adv-x="1001" d="M399 520l-344 438h217l228 -309l248 309h223l-353 -438l412 -520h-215l-315 389l-305 -389h-224z" />
<glyph unicode="y" horiz-adv-x="991" d="M412 164l-439 794h215l324 -608l301 608h207l-776 -1507h-209z" />
<glyph unicode="z" horiz-adv-x="1013" d="M362 172h623v-172h-981l649 786h-538v172h897z" />
<glyph unicode="{" horiz-adv-x="684" d="M98 555v150q154 68 154 309v372q0 113 60.5 192t113.5 79h160v-172h-82q-31 0 -45.5 -20.5t-16.5 -41t-2 -65.5v-377q0 -106 -36.5 -191t-64.5 -114t-54 -47q16 -10 36.5 -30.5t50 -60.5t49 -109t19.5 -150v-377q0 -45 2 -65.5t16.5 -41t45.5 -20.5h82v-172h-160 q-53 0 -113.5 78.5t-60.5 191.5v373q0 241 -154 309z" />
<glyph unicode="|" horiz-adv-x="1167" d="M672 1778v-1778h-176v1778h176z" />
<glyph unicode="}" horiz-adv-x="684" d="M586 705v-150q-154 -68 -154 -309v-373q0 -113 -60.5 -191.5t-113.5 -78.5h-160v172h82q31 0 45.5 20.5t16.5 41t2 65.5v377q0 82 19.5 150.5t49 108.5t50 60t36.5 31q-27 18 -54.5 47t-64 113.5t-36.5 191.5v377q0 45 -2 65.5t-16.5 41t-45.5 20.5h-82v172h160 q53 0 113.5 -79t60.5 -192v-372q0 -241 154 -309z" />
<glyph unicode="~" d="M979 684l137 -102q-137 -250 -311 -250q-82 0 -236 104l-43 30l-43 30q-14 10 -34.5 22t-36 17.5t-27.5 5.5q-49 0 -92 -41t-96 -127l-129 92q45 66 62 88t62.5 72.5t91.5 71t97 20.5q113 0 250 -105q12 -10 38 -29l39 -30q13 -10 31.5 -22.5t33.5 -17.5t30 -5 q49 0 80.5 35t81.5 116q10 17 14 25z" />
<glyph unicode="&#xa1;" horiz-adv-x="657" d="M330 1040q49 0 84 -35.5t35 -82.5q0 -49 -35 -84t-84 -35t-84 34.5t-35 84.5q0 47 35 82.5t84 35.5zM238 662h184v-1190h-184v1190z" />
<glyph unicode="&#xa2;" d="M729 1442v-156q152 -8 250 -63v-236h-4q-96 125 -246 129v-672q150 20 250 127v-239q-102 -49 -215 -58l-35 -2v-174h-98v183q-186 29 -306 166t-120 325q0 193 118.5 337t307.5 173v160h98zM631 451v653q-104 -12 -175 -114.5t-71 -209.5q0 -115 67.5 -210.5 t178.5 -118.5z" />
<glyph unicode="&#xa3;" d="M184 -33l-161 82q63 111 133.5 169t181.5 63q61 205 -16 335h-265v119h205q-119 225 -119 369q0 195 155 334t351 139q215 0 348 -132t144 -347l-185 -70v57q0 129 -85 220.5t-214 91.5q-125 0 -227 -97.5t-102 -212.5q0 -49 16 -102t33.5 -86t50.5 -87t45 -77h303v-119 h-254q53 -172 0 -352l152 -53q12 -4 56 -22.5t76 -27.5t60 -9q39 0 75 27.5t53.5 53t41.5 70.5l154 -94q-47 -109 -128 -175.5t-192 -66.5q-98 0 -268 68q-162 66 -237 65q-128 0 -181 -133z" />
<glyph unicode="&#xa4;" d="M1206 1493l-43 -174q-135 82 -323 82q-217 0 -336 -131t-154 -328h731l-28 -119h-719q-2 -33 -2 -53q0 -47 8 -98h661l-28 -119h-613q39 -174 157 -292t319 -118q98 0 169.5 21.5t157.5 81.5v-207q-131 -72 -321 -72q-268 0 -452.5 150.5t-231.5 435.5h-158l29 119h114 q-4 74 -4 92q0 27 2 59h-139l29 119h123q51 309 242.5 472t461.5 163q82 0 181 -21.5t167 -62.5z" />
<glyph unicode="&#xa5;" d="M688 532v-532h-192v532h-484v119h484v21l-111 192h-373v119h303l-323 561h221l379 -659l379 659h221l-324 -561h303v-119h-370l-113 -192v-21h483v-119h-483z" />
<glyph unicode="&#xa6;" horiz-adv-x="1167" d="M672 711v-711h-176v711h176zM672 1778v-711h-176v711h176z" />
<glyph unicode="&#xa7;" d="M438 686l359 -178q55 35 89 94.5t34 120.5q0 66 -40 104.5t-116 75.5l-377 191q-55 -35 -89 -94.5t-34 -122.5q0 -37 13.5 -67t45 -53.5t52 -37t63.5 -33.5zM635 393l-289 142q-70 35 -105.5 56t-78.5 60t-61.5 88t-18.5 117q0 184 197 332q-90 102 -91 227 q0 154 118 258.5t274 104.5q164 0 280.5 -92.5t126.5 -251.5h-178q-4 84 -72.5 133t-156.5 49q-86 0 -146.5 -59.5t-60.5 -145.5q0 -74 46 -121t128 -86l272 -137q63 -33 100 -54.5t86.5 -59.5t73 -86t23.5 -105q0 -100 -50.5 -192.5t-131.5 -153.5q109 -102 108 -250 q0 -176 -129 -285.5t-307 -109.5q-203 0 -333 118.5t-130 321.5v31h182q-4 -127 74 -215t205 -88q100 0 177 65.5t77 165.5q0 43 -17.5 78t-54.5 63.5t-61.5 42.5t-75.5 39z" />
<glyph unicode="&#xa8;" horiz-adv-x="962" d="M266 1421q51 0 87 -35.5t36 -87t-36 -88t-87 -36.5q-53 0 -89 35.5t-36 88.5q0 51 37 87t88 36zM698.5 1421q51.5 0 87 -35.5t35.5 -87t-35.5 -88t-87 -36.5t-88.5 35.5t-37 88.5q0 51 37 87t88.5 36z" />
<glyph unicode="&#xa9;" horiz-adv-x="1638" d="M819 -33q-338 0 -572.5 234.5t-234.5 570.5t234.5 570.5t572.5 234.5t572.5 -234.5t234.5 -570.5t-234.5 -570.5t-572.5 -234.5zM819.5 1446q-278.5 0 -477.5 -195.5t-199 -478.5t199 -478.5t477.5 -195.5t477 195.5t198.5 478.5t-198.5 478.5t-477 195.5zM1229 938h-125 q-18 84 -86 129t-170 45q-156 0 -234.5 -97t-78.5 -233q0 -147 83.5 -241.5t233.5 -94.5q209 0 252 183h125q-18 -141 -126 -227.5t-251 -86.5q-201 0 -325 133.5t-124 329.5q0 205 121 335t326 130q145 0 248.5 -82t130.5 -223z" />
<glyph unicode="&#xaa;" horiz-adv-x="684" d="M342 1063q94 0 148.5 60.5t54.5 148.5t-54.5 147.5t-148.5 59.5q-88 0 -142.5 -61.5t-54.5 -145.5q0 -86 53.5 -147.5t143.5 -61.5zM659 1559v-574h-120v88h-4q-80 -109 -211 -108q-137 0 -218 90t-81 221q0 123 81.5 212t213 89t217.5 -113h-2h4v95h120zM659 754h-634 v98h634v-98z" />
<glyph unicode="&#xab;" horiz-adv-x="1071" d="M637 655l305 -391l-115 -84l-372 475l372 492l115 -84zM244 655l305 -391l-115 -84l-373 475l373 492l115 -84z" />
<glyph unicode="&#xac;" d="M940 236v376h-872v176h1048v-552h-176z" />
<glyph unicode="&#xad;" horiz-adv-x="679" d="M117 733h448v-153h-448v153z" />
<glyph unicode="&#xae;" horiz-adv-x="1638" d="M819 -33q-338 0 -572.5 234.5t-234.5 570.5t234.5 570.5t572.5 234.5t572.5 -234.5t234.5 -570.5t-234.5 -570.5t-572.5 -234.5zM819.5 1446q-278.5 0 -477.5 -195.5t-199 -478.5t199 -478.5t477.5 -195.5t477 195.5t198.5 478.5t-198.5 478.5t-477 195.5zM958 731 l230 -418h-150l-231 418h-168v-418h-131v906h381q311 0 311 -240q0 -123 -70 -183.5t-172 -64.5zM864 1087h-225v-225h139q14 0 54 -1t58.5 0t52.5 3t51.5 8.5t38 17.5t28.5 30.5t8 44.5q0 41 -15.5 67.5t-47 37.5t-62.5 14t-80 3z" />
<glyph unicode="&#xaf;" horiz-adv-x="1024" d="M143 1421h740v-139h-740v139z" />
<glyph unicode="&#xb0;" horiz-adv-x="819" d="M717 1270q0 -127 -90 -217t-217 -90t-217.5 90t-90.5 217q-2 127 89.5 217t218.5 90t217 -90t90 -217zM408 1475q-86 0 -145.5 -59.5t-57.5 -145.5q0 -88 58.5 -146.5t146.5 -58.5q86 0 145 58.5t59 146.5q0 86 -59 145.5t-147 59.5z" />
<glyph unicode="&#xb1;" d="M68 0v176h1048v-176h-1048zM504 1151h176v-354h436v-176h-436v-355h-176v355h-436v176h436v354z" />
<glyph unicode="&#xb2;" horiz-adv-x="708" d="M295 737h385v-119h-649l440 498q78 90 78 166q0 68 -59.5 116t-127.5 48q-76 0 -126 -43t-54 -113h-137q14 125 98 200t219 75q129 0 223.5 -80t94.5 -199q0 -113 -68 -190z" />
<glyph unicode="&#xb3;" horiz-adv-x="708" d="M334 1061v119q88 0 140 34.5t52 102t-51 104.5t-119 37q-66 0 -109.5 -28.5t-43.5 -86.5h-137q18 113 94 173.5t200.5 60.5t210.5 -68.5t86 -181.5q0 -137 -135 -209q150 -66 150 -229q0 -127 -94.5 -203t-233.5 -76q-121 0 -210 69t-95 181h131q20 -131 184 -131 q76 0 131.5 45t55.5 119q0 78 -59.5 125t-147.5 43z" />
<glyph unicode="&#xb4;" horiz-adv-x="737" d="M412 1503l170 -90l-336 -305l-90 55z" />
<glyph unicode="&#xb5;" horiz-adv-x="1048" d="M119 958h184v-530q0 -133 48 -211t173 -78t173 78t48 211v530h185v-550q0 -205 -100.5 -323t-305.5 -118q-115 0 -221 90v-606h-184v1507z" />
<glyph unicode="&#xb6;" d="M1102 1544v-172h-125v-1685h-172v1685h-127v-1685h-172v893q-176 0 -292 116.5t-130 321.5q-14 195 116 360.5t324 165.5h578z" />
<glyph unicode="&#xb7;" horiz-adv-x="591" d="M297 643q49 0 84 -36t35 -83q0 -49 -35 -83.5t-84 -34.5t-84 34.5t-35 83.5q0 47 35 83t84 36z" />
<glyph unicode="&#xb8;" horiz-adv-x="675" d="M500 -94l-215 -277l-109 56l178 280z" />
<glyph unicode="&#xb9;" horiz-adv-x="708" d="M309 1425h-176l70 119h237v-926h-131v807z" />
<glyph unicode="&#xba;" horiz-adv-x="663" d="M332 1577q139 0 236.5 -88t97.5 -219q0 -129 -97.5 -217t-236.5 -88t-235.5 88t-96.5 217q0 131 96.5 219t235.5 88zM332 1470q-88 0 -149.5 -58t-61.5 -142q0 -80 61.5 -139.5t149.5 -59.5t150.5 59.5t62.5 139.5q0 84 -62.5 142t-150.5 58zM666 754h-666v98h666v-98z " />
<glyph unicode="&#xbb;" horiz-adv-x="1071" d="M129 264l305 391l-305 408l115 84l372 -492l-372 -475zM522 264l305 391l-305 408l115 84l373 -492l-373 -475z" />
<glyph unicode="&#xbc;" horiz-adv-x="1775" d="M258 1425h-176l70 119h237v-926h-131v807zM1593 254h101v-119h-101v-135h-131v135h-497l628 834v-715zM1462 254v336h-6l-252 -336h258zM1292 1577l105 -53l-901 -1557l-105 58z" />
<glyph unicode="&#xbd;" horiz-adv-x="1775" d="M258 618v807h-176l70 119h237v-926h-131zM1309 119h385v-119h-650l441 498q78 90 78 166q0 68 -59.5 115.5t-127.5 47.5q-76 0 -126 -43t-54 -112h-137q14 125 98 199.5t219 74.5q129 0 223.5 -80t94.5 -198q0 -113 -68 -191zM1186 1577l104 -53l-901 -1557l-104 58z" />
<glyph unicode="&#xbe;" horiz-adv-x="1775" d="M1593 254h101v-119h-101v-135h-131v135h-497l628 834v-715zM1462 254v336h-6l-252 -336h258zM377 1061v119q88 0 140 34.5t52 102t-51 104.5t-119 37q-66 0 -109.5 -28.5t-43.5 -86.5h-137q18 113 94 173.5t200.5 60.5t210.5 -68.5t86 -181.5q0 -137 -135 -209 q150 -66 150 -229q0 -127 -94.5 -203t-233.5 -76q-121 0 -210 69t-95 181h131q20 -131 184 -131q76 0 131.5 45t55.5 119q0 78 -59.5 125t-147.5 43zM1407 1577l104 -53l-901 -1557l-104 58z" />
<glyph unicode="&#xbf;" horiz-adv-x="927" d="M311 322h-186q-6 131 96.5 230t235.5 99q137 0 233 -95t96 -232q0 -131 -67.5 -193.5t-190.5 -107.5l-40.5 -15.5t-43 -15.5t-39 -15.5t-36.5 -18.5l-31 -20q-20 -13 -29 -26l-18 -29q-10 -16 -14.5 -34.5t-4.5 -41.5q0 -84 53.5 -133t135.5 -49q72 0 124 52.5t52 123.5 q0 20 -12 66h192l4 -68q8 -145 -104.5 -246.5t-261.5 -101.5q-156 0 -262.5 104.5t-106.5 258.5q0 160 111 254q63 55 254 114q150 45 149 150q0 61 -41 104t-102 43q-66 0 -107 -45.5t-39 -111.5zM457 1040q49 0 83.5 -35.5t34.5 -82.5q0 -49 -34.5 -84t-83.5 -35t-84 34.5 t-35 84.5q0 47 35 82.5t84 35.5z" />
<glyph unicode="&#xc0;" horiz-adv-x="1439" d="M1075 387h-708l-177 -387h-206l737 1610l737 -1610h-207zM995 563l-274 625l-275 -625h549zM508 1999l170 90l256 -340l-90 -55z" />
<glyph unicode="&#xc1;" horiz-adv-x="1439" d="M1075 387h-708l-177 -387h-206l737 1610l737 -1610h-207zM995 563l-274 625l-275 -625h549zM764 2089l170 -90l-336 -305l-90 55z" />
<glyph unicode="&#xc2;" horiz-adv-x="1439" d="M1075 387h-708l-177 -387h-206l737 1610l737 -1610h-207zM995 563l-274 625l-275 -625h549zM393 1792l326 297l330 -297l-121 -94l-209 196l-207 -196z" />
<glyph unicode="&#xc3;" horiz-adv-x="1439" d="M1075 387h-708l-177 -387h-206l737 1610l737 -1610h-207zM995 563l-274 625l-275 -625h549zM426 1759l-96 82l6 10q35 49 59.5 78t67.5 53.5t94 24.5q84 0 182 -53q102 -55 148 -56q72 0 131 99l96 -80q-82 -168 -242 -168q-59 0 -170 53q-111 51 -159 51 q-35 0 -67 -28.5t-50 -65.5z" />
<glyph unicode="&#xc4;" horiz-adv-x="1439" d="M1075 387h-708l-177 -387h-206l737 1610l737 -1610h-207zM995 563l-274 625l-275 -625h549zM506 2007q51 0 87 -36t36 -87t-36 -88t-87 -37t-88 36t-37 89q0 51 37 87t88 36zM938 2007q51 0 87 -36t36 -87t-36 -88t-87 -37q-53 0 -89 36t-36 89q0 51 37 87t88 36z" />
<glyph unicode="&#xc5;" horiz-adv-x="1439" d="M1075 387h-708l-177 -387h-206l737 1610l737 -1610h-207zM995 563l-274 625l-275 -625h549zM721 2089q78 0 132 -54.5t54 -132t-54 -131t-132 -53.5t-131 54.5t-53 130.5q0 78 54 132t130 54zM721 1810q39 0 66.5 27t27.5 66t-27.5 66.5t-66.5 27.5q-37 0 -64.5 -27.5 t-27.5 -66.5t27.5 -66t64.5 -27z" />
<glyph unicode="&#xc6;" horiz-adv-x="2041" d="M1090 387h-703l-176 -387h-211l741 1544h676l78 -176h-633l187 -432h616l82 -176h-619l248 -584h637l78 -176h-831zM1018 563l-266 598l-283 -598h549z" />
<glyph unicode="&#xc7;" horiz-adv-x="1353" d="M1272 1473v-224q-170 152 -408 152q-256 0 -433 -185.5t-177 -445.5q0 -256 175 -441.5t431 -185.5q233 0 412 160v-227q-184 -109 -406 -109q-332 0 -568.5 231.5t-236.5 565.5q0 342 240 577.5t582 235.5q219 0 389 -104zM840 -94l-215 -277l-109 56l178 280z" />
<glyph unicode="&#xc8;" horiz-adv-x="1067" d="M147 0v1544h830v-176h-637v-432h618v-176h-618v-584h637v-176h-830zM322 1999l170 90l256 -340l-91 -55z" />
<glyph unicode="&#xc9;" horiz-adv-x="1067" d="M147 0v1544h830v-176h-637v-432h618v-176h-618v-584h637v-176h-830zM602 2089l170 -90l-336 -305l-90 55z" />
<glyph unicode="&#xca;" horiz-adv-x="1067" d="M147 0v1544h830v-176h-637v-432h618v-176h-618v-584h637v-176h-830zM207 1792l325 297l330 -297l-121 -94l-209 196l-206 -196z" />
<glyph unicode="&#xcb;" horiz-adv-x="1067" d="M147 0v1544h830v-176h-637v-432h618v-176h-618v-584h637v-176h-830zM344 2007q51 0 87 -36t36 -87t-36 -88t-87 -37q-53 0 -89 36t-36 89q0 51 37 87t88 36zM776 2007q51 0 87 -36t36 -87t-36 -88t-87 -37t-88 36t-37 89q0 51 37 87t88 36z" />
<glyph unicode="&#xcc;" horiz-adv-x="475" d="M334 1544v-1544h-193v1544h193zM25 1999l170 90l256 -340l-91 -55z" />
<glyph unicode="&#xcd;" horiz-adv-x="475" d="M334 1544v-1544h-193v1544h193zM281 2089l170 -90l-336 -305l-90 55z" />
<glyph unicode="&#xce;" horiz-adv-x="475" d="M334 1544v-1544h-193v1544h193zM-90 1792l326 297l329 -297l-121 -94l-208 196l-207 -196z" />
<glyph unicode="&#xcf;" horiz-adv-x="475" d="M334 1544v-1544h-193v1544h193zM22.5 2007q51.5 0 87 -36t35.5 -87t-35.5 -88t-87 -37t-88 36t-36.5 89q0 51 36.5 87t88 36zM454.5 2007q51.5 0 87.5 -36t36 -87t-36 -88t-87 -37q-53 0 -89 36t-36 89q0 51 36.5 87t88 36z" />
<glyph unicode="&#xd0;" horiz-adv-x="1361" d="M131 922v622h320q375 0 620.5 -197.5t245.5 -566.5q0 -379 -244 -579.5t-629 -200.5h-313v741h-131v181h131zM324 1368v-446h274v-181h-274v-565h67q156 0 283 31t230.5 98.5t161.5 186t58 280.5q0 164 -58 283t-162.5 185.5t-230.5 97t-282 30.5h-67z" />
<glyph unicode="&#xd1;" horiz-adv-x="1607" d="M129 0v1618l1159 -1215v1141h193v-1607l-1159 1214v-1151h-193zM510 1759l-96 82l6 10q35 49 59.5 78t67.5 53.5t94 24.5q84 0 182 -53q102 -55 148 -56q72 0 131 99l96 -80q-82 -168 -242 -168q-59 0 -170 53q-111 51 -159 51q-35 0 -67 -28.5t-50 -65.5z" />
<glyph unicode="&#xd2;" horiz-adv-x="1695" d="M848 1577q332 0 570.5 -236.5t238.5 -568.5q0 -342 -235.5 -573.5t-573.5 -231.5t-573.5 231.5t-235.5 573.5q0 332 238.5 568.5t570.5 236.5zM848 147q252 0 434 181.5t182 443.5q0 260 -175 442.5t-441 182.5t-441.5 -182.5t-175.5 -442.5q0 -262 182.5 -443.5 t434.5 -181.5zM635 1999l170 90l256 -340l-90 -55z" />
<glyph unicode="&#xd3;" horiz-adv-x="1695" d="M848 1577q332 0 570.5 -236.5t238.5 -568.5q0 -342 -235.5 -573.5t-573.5 -231.5t-573.5 231.5t-235.5 573.5q0 332 238.5 568.5t570.5 236.5zM848 147q252 0 434 181.5t182 443.5q0 260 -175 442.5t-441 182.5t-441.5 -182.5t-175.5 -442.5q0 -262 182.5 -443.5 t434.5 -181.5zM891 2089l170 -90l-336 -305l-90 55z" />
<glyph unicode="&#xd4;" horiz-adv-x="1695" d="M848 1577q332 0 570.5 -236.5t238.5 -568.5q0 -342 -235.5 -573.5t-573.5 -231.5t-573.5 231.5t-235.5 573.5q0 332 238.5 568.5t570.5 236.5zM848 147q252 0 434 181.5t182 443.5q0 260 -175 442.5t-441 182.5t-441.5 -182.5t-175.5 -442.5q0 -262 182.5 -443.5 t434.5 -181.5zM520 1792l326 297l330 -297l-121 -94l-209 196l-207 -196z" />
<glyph unicode="&#xd5;" horiz-adv-x="1695" d="M848 1577q332 0 570.5 -236.5t238.5 -568.5q0 -342 -235.5 -573.5t-573.5 -231.5t-573.5 231.5t-235.5 573.5q0 332 238.5 568.5t570.5 236.5zM848 147q252 0 434 181.5t182 443.5q0 260 -175 442.5t-441 182.5t-441.5 -182.5t-175.5 -442.5q0 -262 182.5 -443.5 t434.5 -181.5zM553 1759l-96 82l6 10q35 49 59.5 78t67.5 53.5t94 24.5q84 0 182 -53q102 -55 148 -56q72 0 131 99l96 -80q-82 -168 -242 -168q-59 0 -170 53q-111 51 -159 51q-35 0 -67 -28.5t-50 -65.5z" />
<glyph unicode="&#xd6;" horiz-adv-x="1695" d="M848 1577q332 0 570.5 -236.5t238.5 -568.5q0 -342 -235.5 -573.5t-573.5 -231.5t-573.5 231.5t-235.5 573.5q0 332 238.5 568.5t570.5 236.5zM848 147q252 0 434 181.5t182 443.5q0 260 -175 442.5t-441 182.5t-441.5 -182.5t-175.5 -442.5q0 -262 182.5 -443.5 t434.5 -181.5zM633 2007q51 0 87 -36t36 -87t-36 -88t-87 -37t-88 36t-37 89q0 51 37 87t88 36zM1065 2007q51 0 87 -36t36 -87t-36 -88t-87 -37q-53 0 -89 36t-36 89q0 51 37 87t88 36z" />
<glyph unicode="&#xd7;" d="M68 924l122 125l402 -400l401 400l123 -125l-399 -400l399 -399l-123 -125l-401 399l-402 -399l-122 125l399 399z" />
<glyph unicode="&#xd8;" horiz-adv-x="1695" d="M1669 1493l-205 -205q193 -240 193 -516q0 -342 -235.5 -573.5t-573.5 -231.5q-285 0 -533 195l-204 -205l-84 86l202 203q-190 211 -190 526q0 332 238.5 568.5t570.5 236.5q145 0 287.5 -53.5t246.5 -151.5l205 205zM365 371l884 876q-160 154 -401 150 q-266 0 -441.5 -182.5t-175.5 -442.5q1 -227 134 -401zM1329 1159l-872 -868q150 -143 391 -144q252 0 434 181.5t182 443.5q0 215 -135 387z" />
<glyph unicode="&#xd9;" horiz-adv-x="1370" d="M121 1544h192v-911q0 -485 373 -485.5t373 485.5v911h192v-977q0 -262 -152.5 -431t-412.5 -169t-412.5 169t-152.5 431v977zM449 1999l169 90l256 -340l-90 -55z" />
<glyph unicode="&#xda;" horiz-adv-x="1370" d="M121 1544h192v-911q0 -485 373 -485.5t373 485.5v911h192v-977q0 -262 -152.5 -431t-412.5 -169t-412.5 169t-152.5 431v977zM729 2089l170 -90l-336 -305l-90 55z" />
<glyph unicode="&#xdb;" horiz-adv-x="1370" d="M121 1544h192v-911q0 -485 373 -485.5t373 485.5v911h192v-977q0 -262 -152.5 -431t-412.5 -169t-412.5 169t-152.5 431v977zM358 1792l326 297l330 -297l-121 -94l-209 196l-207 -196z" />
<glyph unicode="&#xdc;" horiz-adv-x="1370" d="M121 1544h192v-911q0 -485 373 -485.5t373 485.5v911h192v-977q0 -262 -152.5 -431t-412.5 -169t-412.5 169t-152.5 431v977zM471 2007q51 0 87 -36t36 -87t-36 -88t-87 -37q-53 0 -89 36t-36 89q0 51 37 87t88 36zM903 2007q51 0 87 -36t36 -87t-36 -88t-87 -37t-88 36 t-37 89q0 51 37 87t88 36z" />
<glyph unicode="&#xdd;" horiz-adv-x="1173" d="M492 672l-504 872h221l379 -659l379 659h221l-504 -872v-672h-192v672zM713 2089l170 -90l-336 -305l-90 55z" />
<glyph unicode="&#xde;" horiz-adv-x="1013" d="M340 360v-360h-193v1544h193v-287h29q342 0 482 -111.5t140 -334.5q0 -229 -150.5 -340t-389.5 -111h-111zM340 1085v-553h61q84 0 148.5 10.5t128 38t98.5 87t35 147.5q0 86 -37 143.5t-104.5 83t-131 34.5t-147.5 9h-51z" />
<glyph unicode="&#xdf;" horiz-adv-x="1187" d="M578 -33v172q160 0 279.5 115t119.5 274q0 172 -111.5 269.5t-287.5 109.5v180q117 -2 196.5 81t79.5 202q0 113 -78 186.5t-188 73.5q-55 0 -99.5 -18.5t-72 -42t-46 -70.5t-27.5 -78.5t-14 -95t-5 -89.5v-91v-1145h-185v791h-82v172h82v303q0 537 455 536 q190 0 317 -125t127 -317q0 -227 -196 -342q147 -47 233 -187.5t86 -302.5q0 -240 -172.5 -405.5t-410.5 -155.5z" />
<glyph unicode="&#xe0;" horiz-adv-x="1138" d="M541 131q145 0 228 100.5t83 247.5q0 145 -84 244.5t-227 99.5q-137 0 -220 -101t-83 -243q0 -143 82 -245.5t221 -102.5zM1026 958v-958h-184v150h-4q-123 -182 -326 -183q-211 0 -335 150.5t-124 367.5q0 205 125 353.5t328 148.5q207 0 332 -188h4v159h184zM356 1413 l170 90l256 -340l-90 -55z" />
<glyph unicode="&#xe1;" horiz-adv-x="1138" d="M541 131q145 0 228 100.5t83 247.5q0 145 -84 244.5t-227 99.5q-137 0 -220 -101t-83 -243q0 -143 82 -245.5t221 -102.5zM1026 958v-958h-184v150h-4q-123 -182 -326 -183q-211 0 -335 150.5t-124 367.5q0 205 125 353.5t328 148.5q207 0 332 -188h4v159h184zM612 1503 l170 -90l-336 -305l-90 55z" />
<glyph unicode="&#xe2;" horiz-adv-x="1138" d="M541 131q145 0 228 100.5t83 247.5q0 145 -84 244.5t-227 99.5q-137 0 -220 -101t-83 -243q0 -143 82 -245.5t221 -102.5zM1026 958v-958h-184v150h-4q-123 -182 -326 -183q-211 0 -335 150.5t-124 367.5q0 205 125 353.5t328 148.5q207 0 332 -188h4v159h184zM242 1206 l325 297l330 -297l-121 -94l-209 197l-207 -197z" />
<glyph unicode="&#xe3;" horiz-adv-x="1138" d="M541 131q145 0 228 100.5t83 247.5q0 145 -84 244.5t-227 99.5q-137 0 -220 -101t-83 -243q0 -143 82 -245.5t221 -102.5zM1026 958v-958h-184v150h-4q-123 -182 -326 -183q-211 0 -335 150.5t-124 367.5q0 205 125 353.5t328 148.5q207 0 332 -188h4v159h184zM274 1174 l-96 81l6 11q35 49 59.5 77.5t67.5 53t95 24.5q84 0 182 -53q102 -55 147 -55q72 0 131 98l97 -80q-82 -168 -242 -168q-59 0 -170 54q-111 51 -160 51q-35 0 -67 -28.5t-50 -65.5z" />
<glyph unicode="&#xe4;" horiz-adv-x="1138" d="M541 131q145 0 228 100.5t83 247.5q0 145 -84 244.5t-227 99.5q-137 0 -220 -101t-83 -243q0 -143 82 -245.5t221 -102.5zM1026 958v-958h-184v150h-4q-123 -182 -326 -183q-211 0 -335 150.5t-124 367.5q0 205 125 353.5t328 148.5q207 0 332 -188h4v159h184z M354.5 1421q51.5 0 87 -35.5t35.5 -87t-35.5 -88t-87 -36.5t-88.5 35.5t-37 88.5q0 51 37 87t88.5 36zM786.5 1421q51.5 0 87 -35.5t35.5 -87t-35.5 -88t-87.5 -36.5q-53 0 -88.5 35.5t-35.5 88.5q0 51 36.5 87t88 36z" />
<glyph unicode="&#xe5;" horiz-adv-x="1138" d="M541 131q145 0 228 100.5t83 247.5q0 145 -84 244.5t-227 99.5q-137 0 -220 -101t-83 -243q0 -143 82 -245.5t221 -102.5zM1026 958v-958h-184v150h-4q-123 -182 -326 -183q-211 0 -335 150.5t-124 367.5q0 205 125 353.5t328 148.5q207 0 332 -188h4v159h184zM569 1503 q78 0 132.5 -54t54.5 -132t-54.5 -131t-132 -53t-131 54t-53.5 130q0 78 54 132t130 54zM569 1225q39 0 67 26.5t28 65.5t-28 66.5t-67 27.5q-37 0 -64.5 -27.5t-27.5 -66.5t27.5 -65.5t64.5 -26.5z" />
<glyph unicode="&#xe6;" horiz-adv-x="1652" d="M905 588h537q-16 111 -86 175t-178 64q-106 0 -181.5 -67.5t-91.5 -171.5zM453 446q-84 0 -156 -42t-72 -119.5t74 -115.5t160 -38q88 0 162.5 40t74.5 120q0 78 -77.5 116.5t-165.5 38.5zM1622 449h-731q2 -129 82 -223.5t207 -94.5q100 0 164.5 46t121.5 140l156 -88 q-68 -123 -185.5 -192.5t-258.5 -69.5q-215 0 -369 178q-57 -86 -156.5 -132t-210.5 -46q-156 0 -272.5 81t-116.5 233q0 150 104.5 235.5t258.5 85.5q184 0 291 -88v66q0 248 -252 247q-166 0 -262 -30v164q135 27 288 26q98 0 191.5 -40t136.5 -118q127 158 365 158 q219 0 333.5 -142.5t114.5 -367.5v-28z" />
<glyph unicode="&#xe7;" horiz-adv-x="903" d="M831 924v-238q-113 129 -274 129q-133 0 -226 -100.5t-93 -235.5q0 -147 93 -243.5t238 -96.5q150 0 262 127v-235q-119 -63 -264 -64q-213 0 -363.5 145.5t-150.5 358.5q0 221 150.5 368.5t374.5 147.5q144 0 253 -63zM614 -94l-215 -277l-108 56l178 280z" />
<glyph unicode="&#xe8;" horiz-adv-x="999" d="M969 449h-731q2 -129 81.5 -223.5t206.5 -94.5q100 0 165 46t122 140l156 -88q-68 -123 -185.5 -192.5t-259.5 -69.5q-215 0 -343 143.5t-128 360.5q0 229 121 372.5t346 143.5q219 0 334 -142.5t115 -367.5v-28zM248 588h536q-16 111 -85.5 175t-178.5 64 q-106 0 -181 -67.5t-91 -171.5zM287 1413l170 90l256 -340l-90 -55z" />
<glyph unicode="&#xe9;" horiz-adv-x="999" d="M969 449h-731q2 -129 81.5 -223.5t206.5 -94.5q100 0 165 46t122 140l156 -88q-68 -123 -185.5 -192.5t-259.5 -69.5q-215 0 -343 143.5t-128 360.5q0 229 121 372.5t346 143.5q219 0 334 -142.5t115 -367.5v-28zM248 588h536q-16 111 -85.5 175t-178.5 64 q-106 0 -181 -67.5t-91 -171.5zM543 1503l170 -90l-336 -305l-90 55z" />
<glyph unicode="&#xea;" horiz-adv-x="999" d="M969 449h-731q2 -129 81.5 -223.5t206.5 -94.5q100 0 165 46t122 140l156 -88q-68 -123 -185.5 -192.5t-259.5 -69.5q-215 0 -343 143.5t-128 360.5q0 229 121 372.5t346 143.5q219 0 334 -142.5t115 -367.5v-28zM248 588h536q-16 111 -85.5 175t-178.5 64 q-106 0 -181 -67.5t-91 -171.5zM172 1206l326 297l329 -297l-120 -94l-209 197l-207 -197z" />
<glyph unicode="&#xeb;" horiz-adv-x="999" d="M969 449h-731q2 -129 81.5 -223.5t206.5 -94.5q100 0 165 46t122 140l156 -88q-68 -123 -185.5 -192.5t-259.5 -69.5q-215 0 -343 143.5t-128 360.5q0 229 121 372.5t346 143.5q219 0 334 -142.5t115 -367.5v-28zM248 588h536q-16 111 -85.5 175t-178.5 64 q-106 0 -181 -67.5t-91 -171.5zM284.5 1421q51.5 0 87.5 -35.5t36 -87t-36 -88t-87.5 -36.5t-88 35.5t-36.5 88.5q0 51 36.5 87t88 36zM717 1421q51 0 87 -35.5t36 -87t-36 -88t-87 -36.5q-53 0 -89 35.5t-36 88.5q0 51 37 87t88 36z" />
<glyph unicode="&#xec;" horiz-adv-x="520" d="M352 958v-958h-184v958h184zM47 1413l170 90l256 -340l-90 -55z" />
<glyph unicode="&#xed;" horiz-adv-x="520" d="M352 958v-958h-184v958h184zM303 1503l170 -90l-336 -305l-90 55z" />
<glyph unicode="&#xee;" horiz-adv-x="520" d="M352 958v-958h-184v958h184zM-68 1206l326 297l330 -297l-121 -94l-209 197l-207 -197z" />
<glyph unicode="&#xef;" horiz-adv-x="520" d="M352 958v-958h-184v958h184zM45 1421q51 0 87 -35.5t36 -87t-36 -88t-87 -36.5q-53 0 -89 35.5t-36 88.5q0 51 37 87t88 36zM477 1421q51 0 87 -35.5t36 -87t-36 -88t-87 -36.5t-88 35.5t-37 88.5q0 51 37 87t88 36z" />
<glyph unicode="&#xf0;" horiz-adv-x="1105" d="M553 811q-135 0 -231.5 -98.5t-96.5 -235.5q0 -135 96.5 -234.5t231.5 -99.5t231.5 99.5t96.5 234.5q0 137 -96.5 235.5t-231.5 98.5zM94 1688l160 90l207 -228l299 170l100 -110l-297 -172q154 -180 338 -480q164 -266 164 -481q0 -227 -146.5 -368.5t-365.5 -141.5 q-215 0 -363.5 147.5t-148.5 362.5t148.5 362.5t363.5 147.5q70 0 135 -29l4 5q-59 96 -150 219t-139 166l-323 -187l-103 113l324 186z" />
<glyph unicode="&#xf1;" horiz-adv-x="1071" d="M311 958v-129h4q41 76 120 117t169 41q188 0 264 -110.5t76 -305.5v-571h-184v549q0 141 -40 207.5t-171 66.5q-57 0 -100 -14t-68 -47t-40 -62.5t-21.5 -84t-7.5 -85t-1 -90.5v-440h-184v958h184zM242 1174l-97 81l7 11q35 49 59.5 77.5t67.5 53t94 24.5q84 0 182 -53 q102 -55 147 -55q72 0 132 98l96 -80q-82 -168 -242 -168q-59 0 -170 54q-111 51 -160 51q-35 0 -66.5 -28.5t-49.5 -65.5z" />
<glyph unicode="&#xf2;" horiz-adv-x="1105" d="M553 987q215 0 363.5 -147.5t148.5 -362.5t-148.5 -362.5t-363.5 -147.5t-363.5 147.5t-148.5 362.5t148.5 362.5t363.5 147.5zM553 811q-135 0 -231.5 -98.5t-96.5 -235.5q0 -135 96.5 -234.5t231.5 -99.5t231.5 99.5t96.5 234.5q0 137 -96.5 235.5t-231.5 98.5z M340 1413l170 90l256 -340l-90 -55z" />
<glyph unicode="&#xf3;" horiz-adv-x="1105" d="M553 987q215 0 363.5 -147.5t148.5 -362.5t-148.5 -362.5t-363.5 -147.5t-363.5 147.5t-148.5 362.5t148.5 362.5t363.5 147.5zM553 811q-135 0 -231.5 -98.5t-96.5 -235.5q0 -135 96.5 -234.5t231.5 -99.5t231.5 99.5t96.5 234.5q0 137 -96.5 235.5t-231.5 98.5z M596 1503l170 -90l-336 -305l-90 55z" />
<glyph unicode="&#xf4;" horiz-adv-x="1105" d="M553 987q215 0 363.5 -147.5t148.5 -362.5t-148.5 -362.5t-363.5 -147.5t-363.5 147.5t-148.5 362.5t148.5 362.5t363.5 147.5zM553 811q-135 0 -231.5 -98.5t-96.5 -235.5q0 -135 96.5 -234.5t231.5 -99.5t231.5 99.5t96.5 234.5q0 137 -96.5 235.5t-231.5 98.5z M225 1206l326 297l330 -297l-121 -94l-209 197l-207 -197z" />
<glyph unicode="&#xf5;" horiz-adv-x="1105" d="M553 987q215 0 363.5 -147.5t148.5 -362.5t-148.5 -362.5t-363.5 -147.5t-363.5 147.5t-148.5 362.5t148.5 362.5t363.5 147.5zM553 811q-135 0 -231.5 -98.5t-96.5 -235.5q0 -135 96.5 -234.5t231.5 -99.5t231.5 99.5t96.5 234.5q0 137 -96.5 235.5t-231.5 98.5z M258 1174l-96 81l6 11q35 49 59.5 77.5t67.5 53t94 24.5q84 0 182 -53q102 -55 148 -55q72 0 131 98l96 -80q-82 -168 -241 -168q-59 0 -170 54q-111 51 -160 51q-35 0 -67 -28.5t-50 -65.5z" />
<glyph unicode="&#xf6;" horiz-adv-x="1105" d="M553 987q215 0 363.5 -147.5t148.5 -362.5t-148.5 -362.5t-363.5 -147.5t-363.5 147.5t-148.5 362.5t148.5 362.5t363.5 147.5zM553 811q-135 0 -231.5 -98.5t-96.5 -235.5q0 -135 96.5 -234.5t231.5 -99.5t231.5 99.5t96.5 234.5q0 137 -96.5 235.5t-231.5 98.5z M338 1421q51 0 87 -35.5t36 -87t-36 -88t-87 -36.5t-88 35.5t-37 88.5q0 51 37 87t88 36zM770 1421q51 0 87 -35.5t36 -87t-36 -88t-87 -36.5q-53 0 -89 35.5t-36 88.5q0 51 37 87t88 36z" />
<glyph unicode="&#xf7;" d="M68 436v176h1048v-176h-1048zM592 254q53 0 90 -38t37 -91q0 -51 -37 -88t-90 -37t-90 37t-37 88q0 53 37 91t90 38zM592 1049q53 0 90 -38t37 -91q0 -51 -37 -88t-90 -37t-90 36.5t-37 88.5q0 53 37 91t90 38z" />
<glyph unicode="&#xf8;" horiz-adv-x="1105" d="M1077 940l-133 -131q121 -162 121 -332q0 -215 -148.5 -362.5t-363.5 -147.5q-190 0 -334 119l-125 -131l-63 63l125 127q-115 160 -115 332q0 215 148.5 362.5t363.5 147.5q188 0 326 -119l135 138zM291 274l457 469q-86 68 -195 68q-135 0 -231.5 -98.5t-96.5 -235.5 q0 -107 66 -203zM809 676l-455 -467q80 -66 199 -66q135 0 231.5 99.5t96.5 234.5q0 117 -72 199z" />
<glyph unicode="&#xf9;" horiz-adv-x="1048" d="M119 958h184v-530q0 -133 48 -211t173 -78t173 78t48 211v530h185v-550q0 -205 -100.5 -323t-305.5 -118t-305 118t-100 323v550zM311 1413l170 90l256 -340l-90 -55z" />
<glyph unicode="&#xfa;" horiz-adv-x="1048" d="M119 958h184v-530q0 -133 48 -211t173 -78t173 78t48 211v530h185v-550q0 -205 -100.5 -323t-305.5 -118t-305 118t-100 323v550zM567 1503l170 -90l-336 -305l-90 55z" />
<glyph unicode="&#xfb;" horiz-adv-x="1048" d="M119 958h184v-530q0 -133 48 -211t173 -78t173 78t48 211v530h185v-550q0 -205 -100.5 -323t-305.5 -118t-305 118t-100 323v550zM197 1206l325 297l330 -297l-121 -94l-209 197l-207 -197z" />
<glyph unicode="&#xfc;" horiz-adv-x="1048" d="M119 958h184v-530q0 -133 48 -211t173 -78t173 78t48 211v530h185v-550q0 -205 -100.5 -323t-305.5 -118t-305 118t-100 323v550zM309 1421q51 0 87 -35.5t36 -87t-36 -88t-87 -36.5t-88 35.5t-37 88.5q0 51 37 87t88 36zM741.5 1421q51.5 0 87 -35.5t35.5 -87t-35.5 -88 t-87.5 -36.5q-53 0 -89 35.5t-36 88.5q0 51 37 87t88.5 36z" />
<glyph unicode="&#xfd;" horiz-adv-x="991" d="M412 164l-439 794h215l324 -608l301 608h207l-776 -1507h-209zM539 1503l170 -90l-336 -305l-90 55z" />
<glyph unicode="&#xfe;" horiz-adv-x="1138" d="M297 1778v-979h4q125 188 334 188q201 0 325.5 -148.5t124.5 -353.5q0 -217 -122.5 -367.5t-335.5 -150.5q-98 0 -183.5 49.5t-142.5 133.5h-4v-699h-184v2327h184zM590 131q145 0 228 100.5t83 247.5q0 145 -84 244.5t-227 99.5q-137 0 -220 -101t-83 -243 q0 -143 82 -245.5t221 -102.5z" />
<glyph unicode="&#xff;" horiz-adv-x="991" d="M412 164l-439 794h215l324 -608l301 608h207l-776 -1507h-209zM280.5 1421q51.5 0 87 -35.5t35.5 -87t-35.5 -88t-87 -36.5t-88 35.5t-36.5 88.5q0 51 36.5 87t88 36zM713 1421q51 0 87 -35.5t36 -87t-36 -88t-87 -36.5q-53 0 -89 35.5t-36 88.5q0 51 37 87t88 36z" />
<glyph unicode="&#x152;" horiz-adv-x="2340" d="M1470 0v258h-4q-104 -139 -267 -216t-351 -75q-338 0 -573.5 231.5t-235.5 573.5q0 332 238.5 568.5t570.5 236.5q184 -6 352 -84t266 -219h4v270h809v-176h-634v-432h616v-176h-616v-584h634v-176h-809zM848 147q252 0 434 181.5t182 443.5q0 260 -175 442.5t-441 182.5 t-441.5 -182.5t-175.5 -442.5q0 -262 182.5 -443.5t434.5 -181.5z" />
<glyph unicode="&#x153;" horiz-adv-x="1837" d="M1083 588h537q-16 111 -86 175t-178 64q-106 0 -181.5 -67.5t-91.5 -171.5zM553 811q-135 0 -231.5 -98.5t-96.5 -235.5q0 -135 96.5 -234.5t231.5 -99.5t231.5 99.5t96.5 234.5q0 137 -96.5 235.5t-231.5 98.5zM1806 449h-731q2 -129 82 -223.5t207 -94.5 q100 0 164.5 46t122.5 140l155 -88q-68 -123 -185.5 -192.5t-258.5 -69.5q-123 -2 -231.5 54.5t-167.5 156.5q-68 -100 -178.5 -156.5t-231.5 -54.5q-215 0 -363.5 147.5t-148.5 362.5t148.5 362.5t363.5 147.5q119 -4 231.5 -61.5t178.5 -153.5q131 207 395 215 q219 0 333.5 -142.5t114.5 -367.5v-28z" />
<glyph unicode="&#x178;" horiz-adv-x="1173" d="M492 672l-504 872h221l379 -659l379 659h221l-504 -872v-672h-192v672zM373 2007q51 0 87 -36t36 -87t-36 -88t-87 -37q-53 0 -89 36t-36 89q0 51 37 87t88 36zM805 2007q51 0 87 -36t36 -87t-36 -88t-87 -37t-88 36t-37 89q0 51 37 87t88 36z" />
<glyph unicode="&#x2c6;" horiz-adv-x="962" d="M154 1206l325 297l330 -297l-121 -94l-209 197l-207 -197z" />
<glyph unicode="&#x2dc;" horiz-adv-x="1044" d="M227 1174l-96 81l6 11q35 49 59.5 77.5t67.5 53t94 24.5q84 0 183 -53q102 -55 147 -55q72 0 131 98l96 -80q-82 -168 -241 -168q-59 0 -170 54q-111 51 -160 51q-35 0 -67 -28.5t-50 -65.5z" />
<glyph unicode="&#x3bc;" horiz-adv-x="1048" d="M119 958h184v-530q0 -133 48 -211t173 -78t173 78t48 211v530h185v-550q0 -205 -100.5 -323t-305.5 -118q-115 0 -221 90v-606h-184v1507z" />
<glyph unicode="&#x2000;" horiz-adv-x="1044" />
<glyph unicode="&#x2001;" horiz-adv-x="2088" />
<glyph unicode="&#x2002;" horiz-adv-x="1044" />
<glyph unicode="&#x2003;" horiz-adv-x="2088" />
<glyph unicode="&#x2004;" horiz-adv-x="696" />
<glyph unicode="&#x2005;" horiz-adv-x="522" />
<glyph unicode="&#x2006;" horiz-adv-x="348" />
<glyph unicode="&#x2007;" horiz-adv-x="348" />
<glyph unicode="&#x2008;" horiz-adv-x="260" />
<glyph unicode="&#x2009;" horiz-adv-x="417" />
<glyph unicode="&#x200a;" horiz-adv-x="114" />
<glyph unicode="&#x2010;" horiz-adv-x="679" d="M117 733h448v-153h-448v153z" />
<glyph unicode="&#x2011;" horiz-adv-x="679" d="M117 733h448v-153h-448v153z" />
<glyph unicode="&#x2012;" horiz-adv-x="679" d="M117 733h448v-153h-448v153z" />
<glyph unicode="&#x2013;" horiz-adv-x="1024" d="M0 733h1024v-153h-1024v153z" />
<glyph unicode="&#x2014;" horiz-adv-x="2048" d="M0 733h2048v-153h-2048v153z" />
<glyph unicode="&#x2018;" horiz-adv-x="567" d="M285 967l-162 63l272 547l115 -47z" />
<glyph unicode="&#x2019;" horiz-adv-x="567" d="M283 1577l161 -64l-272 -546l-115 47z" />
<glyph unicode="&#x201a;" horiz-adv-x="567" d="M336 244l160 -64l-273 -547l-112 48z" />
<glyph unicode="&#x201c;" horiz-adv-x="899" d="M625 967l-162 63l272 547l115 -47zM285 967l-162 63l272 547l115 -47z" />
<glyph unicode="&#x201d;" horiz-adv-x="899" d="M274 1577l162 -64l-272 -546l-115 47zM614 1577l162 -64l-272 -546l-115 47z" />
<glyph unicode="&#x201e;" horiz-adv-x="899" d="M328 244l159 -64l-272 -547l-113 48zM668 244l159 -64l-272 -547l-113 48z" />
<glyph unicode="&#x2022;" d="M592 387q-160 0 -272.5 112.5t-112.5 272.5q-2 162 110.5 274.5t274.5 112.5t274.5 -112.5t112.5 -274.5q0 -160 -113.5 -272.5t-273.5 -112.5z" />
<glyph unicode="&#x2026;" horiz-adv-x="2048" d="M1024 205q49 0 84 -36t35 -83q0 -49 -35 -84t-84 -35t-84 35t-35 84q0 47 35 83t84 36zM1708 205q49 0 84 -36t35 -83q0 -49 -35 -84t-84 -35t-84 35t-35 84q0 47 35 83t84 36zM340 205q49 0 84 -36t35 -83q0 -49 -35 -84t-84 -35t-84 35t-35 84q0 47 35 83t84 36z" />
<glyph unicode="&#x202f;" horiz-adv-x="417" />
<glyph unicode="&#x2039;" horiz-adv-x="688" d="M227 655l305 -391l-114 -84l-373 475l373 492l114 -84z" />
<glyph unicode="&#x203a;" horiz-adv-x="688" d="M156 264l305 391l-305 408l114 84l373 -492l-373 -475z" />
<glyph unicode="&#x205f;" horiz-adv-x="522" />
<glyph unicode="&#x20ac;" d="M1206 1493l-43 -174q-135 82 -323 82q-217 0 -336 -131t-154 -328h731l-28 -119h-719q-2 -33 -2 -53q0 -47 8 -98h661l-28 -119h-613q39 -174 157 -292t319 -118q98 0 169.5 21.5t157.5 81.5v-207q-131 -72 -321 -72q-268 0 -452.5 150.5t-231.5 435.5h-158l29 119h114 q-4 74 -4 92q0 27 2 59h-139l29 119h123q51 309 242.5 472t461.5 163q82 0 181 -21.5t167 -62.5z" />
<glyph unicode="&#x2122;" horiz-adv-x="1925" d="M1855 1544v-862h-131v731h-4l-295 -731h-79l-287 731h-4v-731h-131v862h215l247 -608l256 608h213zM766 1544v-131h-283v-731h-131v731h-282v131h696z" />
<glyph unicode="&#xe000;" horiz-adv-x="960" d="M0 960h960v-960h-960v960z" />
<glyph unicode="&#xfb01;" horiz-adv-x="1048" d="M881 958v-958h-185v958h185zM788.5 1526q53.5 0 90 -38t36.5 -91q0 -51 -36.5 -88t-90 -37t-90 37t-36.5 88q0 53 36.5 91t90 38zM602 1778v-187q-88 39 -123 39q-37 0 -63.5 -19.5t-38.5 -44t-19.5 -66.5t-8.5 -65.5t-1 -64.5v-412h254v-172h-254v-786h-184v786h-84v172 h84v467q0 377 309 377q68 1 129 -24z" />
<glyph unicode="&#xfb02;" horiz-adv-x="1017" d="M883 1778v-1778h-185v1778h185zM602 1778v-187q-88 39 -123 39q-37 0 -63.5 -19.5t-38.5 -44t-19.5 -66.5t-8.5 -65.5t-1 -64.5v-412h254v-172h-254v-786h-184v786h-84v172h84v467q0 377 309 377q68 1 129 -24z" />
<glyph unicode="&#xfb03;" horiz-adv-x="1646" d="M1478 958v-958h-184v958h184zM1386 1526q53 0 90 -38t37 -91q0 -51 -37 -88t-90 -37t-90 37t-37 88q0 53 37 91t90 38zM1165 1778v-187q-88 39 -123 39q-37 0 -63.5 -19.5t-38.5 -44t-19.5 -66.5t-8.5 -65.5t-1 -64.5v-412h254v-172h-254v-786h-184v786h-84v172h84v467 q0 377 309 377q68 1 129 -24zM602 1778v-187q-88 39 -123 39q-37 0 -63.5 -19.5t-38.5 -44t-19.5 -66.5t-8.5 -65.5t-1 -64.5v-412h254v-172h-254v-786h-184v786h-84v172h84v467q0 377 309 377q68 1 129 -24z" />
<glyph unicode="&#xfb04;" horiz-adv-x="1581" d="M1445 1778v-1778h-184v1778h184zM1165 1778v-187q-88 39 -123 39q-37 0 -63.5 -19.5t-38.5 -44t-19.5 -66.5t-8.5 -65.5t-1 -64.5v-412h254v-172h-254v-786h-184v786h-84v172h84v467q0 377 309 377q68 1 129 -24zM602 1778v-187q-88 39 -123 39q-37 0 -63.5 -19.5 t-38.5 -44t-19.5 -66.5t-8.5 -65.5t-1 -64.5v-412h254v-172h-254v-786h-184v786h-84v172h84v467q0 377 309 377q68 1 129 -24z" />
</font>
</defs>
</svg>
