<?xml version="1.0" standalone="no"?>
<!DOCTYPE svg PUBLIC "-//W3C//DTD SVG 1.1//EN" "http://www.w3.org/Graphics/SVG/1.1/DTD/svg11.dtd" >
<svg xmlns="http://www.w3.org/2000/svg">
<metadata></metadata>
<defs>
<font id="TeXGyreHerosItalic" horiz-adv-x="1138" >
<font-face units-per-em="2048" ascent="1606" descent="-442" />
<missing-glyph horiz-adv-x="569" />
<glyph unicode="&#xfb01;" horiz-adv-x="1024" d="M80 0l199 936h-144l29 137h143l39 182q25 114 106 179t199 65q46 0 92 -10l-30 -141q-29 4 -56 4q-66 0 -98 -30.5t-49 -107.5l-31 -141h176l-28 -137h-176l-199 -936h-172zM606 0l228 1073h172l-228 -1073h-172zM846 1237l45 211h213l-45 -211h-213z" />
<glyph unicode="&#xfb02;" horiz-adv-x="1024" d="M80 0l199 936h-144l29 137h143l39 182q25 114 106 179t199 65q46 0 92 -10l-30 -141q-29 4 -56 4q-66 0 -98 -30.5t-49 -107.5l-31 -141h176l-28 -137h-176l-199 -936h-172zM606 0l318 1493h172l-318 -1493h-172z" />
<glyph unicode="&#xfb03;" horiz-adv-x="1550" d="M80 0l199 936h-144l29 137h143l39 182q25 114 106 179t199 65q46 0 92 -10l-30 -141q-29 4 -56 4q-66 0 -98 -30.5t-49 -107.5l-31 -141h355l38 182q25 114 106.5 179t199.5 65q46 0 92 -10l-31 -141q-29 4 -55 4q-66 0 -98.5 -30.5t-49.5 -107.5l-30 -141h176l-29 -137 h-176l-199 -936h-172l199 936h-354l-199 -936h-172zM1133 0l227 1073h172l-227 -1073h-172zM1372 1237l45 211h213l-45 -211h-213z" />
<glyph unicode="&#xfb04;" horiz-adv-x="1550" d="M80 0l199 936h-144l29 137h143l39 182q25 114 106 179t199 65q46 0 92 -10l-30 -141q-29 4 -56 4q-66 0 -98 -30.5t-49 -107.5l-31 -141h355l38 182q25 114 106.5 179t199.5 65q46 0 92 -10l-31 -141q-29 4 -55 4q-66 0 -98.5 -30.5t-49.5 -107.5l-30 -141h176l-29 -137 h-176l-199 -936h-172l199 936h-354l-199 -936h-172zM1133 0l317 1493h172l-317 -1493h-172z" />
<glyph horiz-adv-x="0" />
<glyph horiz-adv-x="2048" />
<glyph unicode=" "  horiz-adv-x="569" />
<glyph unicode="&#x09;" horiz-adv-x="569" />
<glyph unicode="&#xa0;" horiz-adv-x="569" />
<glyph unicode="!" horiz-adv-x="569" d="M96 0l45 211h172l-45 -211h-172zM215 344l47 432l152 717h172l-152 -717l-137 -432h-82z" />
<glyph unicode="&#x22;" horiz-adv-x="727" d="M262 950v275l49 227h193l-49 -227l-113 -275h-80zM588 950v275l49 227h192l-49 -227l-112 -275h-80z" />
<glyph unicode="#" d="M8 391l29 131h229l150 377h-223l26 131h248l158 397h155l-155 -397h254l157 397h156l-158 -397h193l-29 -131h-215l-149 -377h219l-29 -131h-242l-170 -432h-155l170 432h-256l-170 -432h-156l170 432h-207zM422 522h256l149 377h-254z" />
<glyph unicode="$" d="M39 274q0 59 16 152h162l-2 -23q-6 -59 -6 -96q0 -84 47 -132.5t160 -80.5l119 557q-112 39 -157 59.5t-77 47.5q-92 80 -92 203q0 210 135 349t365 156l22 111h121l-23 -111q153 -7 238.5 -89t85.5 -220q0 -45 -12 -94h-162l2 31q2 18 2 43q0 80 -50 131t-134 55 l-109 -510q122 -37 166 -54.5t82 -43.5q62 -41 89.5 -92.5t27.5 -124.5q0 -234 -149.5 -386.5t-397.5 -158.5l-45 -211h-121l45 211q-180 28 -264 105t-84 216zM379 1026q0 -75 44 -120t150 -77l105 492q-129 -9 -214 -94.5t-85 -200.5zM537 94q161 12 249 100.5t88 237.5 q0 74 -49.5 119.5t-173.5 81.5z" />
<glyph unicode="%" horiz-adv-x="1820" d="M172 979q0 105 61.5 202.5t162 156.5t208.5 59q120 0 201.5 -77t81.5 -190q0 -81 -36 -158.5t-95.5 -135t-140 -92.5t-164.5 -35q-120 0 -199.5 76.5t-79.5 193.5zM315 1012q0 -72 48 -120t120 -48q100 0 180 77.5t80 172.5q0 75 -47.5 121.5t-124.5 46.5 q-98 0 -177 -76.5t-79 -173.5zM326 -41l1126 1493h135l-1126 -1493h-135zM1016 238q0 105 61.5 202t162 156t208.5 59q120 0 201.5 -76.5t81.5 -189.5q0 -108 -61 -206t-162.5 -157t-213.5 -59q-120 0 -199 77t-79 194zM1159 270q0 -72 48 -120t120 -48q100 0 180 77.5 t80 172.5q0 75 -47.5 121.5t-124.5 46.5q-98 0 -177 -76.5t-79 -173.5z" />
<glyph unicode="&#x26;" horiz-adv-x="1366" d="M68 262q0 116 47 209t135 168t237 160q-13 36 -18 47l-37 86q-29 72 -29 139q0 149 129.5 265t296.5 116q125 0 199 -67.5t74 -182.5q0 -134 -90.5 -238t-280.5 -190l201 -334q48 56 76 111.5t47 132.5h162q-19 -94 -74.5 -195.5t-130.5 -179.5l184 -309h-217l-94 160 q-140 -116 -243 -161.5t-226 -45.5q-161 0 -254.5 83t-93.5 226zM248 326q0 -100 60 -157.5t163 -57.5q76 0 154 38.5t190 131.5l-244 407q-172 -92 -247.5 -177t-75.5 -185zM573 1092q0 -43 17 -78.5t80 -124.5q141 71 201.5 136.5t60.5 150.5q0 62 -37.5 97.5t-103.5 35.5 q-91 0 -154.5 -63t-63.5 -154z" />
<glyph unicode="'" horiz-adv-x="391" d="M254 950v275l49 227h193l-50 -227l-112 -275h-80z" />
<glyph unicode="(" horiz-adv-x="681" d="M129 238q0 311 150.5 643t418.5 612h113q-258 -316 -390 -653t-132 -678q0 -308 112 -598h-112q-75 132 -117.5 311.5t-42.5 362.5z" />
<glyph unicode=")" horiz-adv-x="681" d="M-117 -436q255 312 389 650t134 669q0 322 -113 610h113q72 -127 114.5 -306t42.5 -353q0 -319 -150.5 -655t-416.5 -615h-113z" />
<glyph unicode="*" horiz-adv-x="796" d="M244 1225l61 121l205 -82l41 229h127l-60 -229l226 77l18 -127l-231 -55l108 -186l-118 -76l-91 197l-165 -195l-97 82l189 180z" />
<glyph unicode="+" horiz-adv-x="1196" d="M139 442v140h389v389h140v-389h389v-140h-389v-389h-140v389h-389z" />
<glyph unicode="," horiz-adv-x="569" d="M10 -301l17 78q74 0 111 48.5t59 174.5h-121l45 211h215l-53 -244q-28 -128 -95.5 -198.5t-164.5 -69.5h-13z" />
<glyph unicode="-" horiz-adv-x="681" d="M96 492l31 147h489l-30 -147h-490z" />
<glyph unicode="." horiz-adv-x="569" d="M76 0l45 211h213l-45 -211h-213z" />
<glyph unicode="/" horiz-adv-x="569" d="M-127 -41l801 1534h112l-800 -1534h-113z" />
<glyph unicode="0" d="M102 365q0 221 64.5 458t161.5 379q171 250 426 250q173 0 270.5 -105.5t97.5 -293.5q0 -221 -63.5 -457.5t-161.5 -376.5q-89 -129 -193.5 -189.5t-236.5 -60.5q-165 0 -265 103t-100 293zM283 387q0 -122 54.5 -191t151.5 -69q100 0 175.5 61t136.5 193 q58 123 99.5 314.5t41.5 336.5q0 124 -56.5 193t-156.5 69q-191 0 -307 -252q-58 -127 -98.5 -317.5t-40.5 -337.5z" />
<glyph unicode="1" d="M324 1034l26 129q80 11 128.5 20t94 24.5t71.5 32t54.5 49t49.5 68t51 95.5h119l-310 -1452h-180l221 1034h-325z" />
<glyph unicode="2" d="M-33 0q35 129 71.5 211.5t99.5 156t146.5 131t221.5 130.5l213 106q127 63 197.5 152.5t70.5 187.5t-65 158.5t-172 60.5q-146 0 -235.5 -84t-135.5 -262h-180q60 260 199.5 382t375.5 122q183 0 288 -96.5t105 -255.5q0 -308 -405 -512l-230 -117q-285 -144 -333 -293 h772l-39 -178h-965z" />
<glyph unicode="3" d="M47 311q0 51 10 127h181l-5 -26q-6 -33 -6 -80q0 -93 66.5 -149t175.5 -56q173 0 280 100t107 265q0 88 -71.5 137t-198.5 49q-49 0 -92 -4l32 153h37q200 0 290.5 72.5t90.5 216.5q0 83 -58.5 130.5t-158.5 47.5q-137 0 -222 -73t-122 -238h-180q65 250 200.5 359.5 t348.5 109.5q169 0 270.5 -82t101.5 -217q0 -136 -58 -227.5t-189 -165.5q86 -43 122.5 -98.5t36.5 -143.5q0 -112 -42.5 -212t-118.5 -174.5t-188.5 -118.5t-244.5 -44q-192 0 -293.5 88t-101.5 254z" />
<glyph unicode="4" d="M27 348l41 189l852 915h135l-201 -944h217l-35 -160h-217l-74 -348h-180l74 348h-612zM221 508h453l133 631z" />
<glyph unicode="5" d="M45 328v45h180q9 -246 256 -246q175 0 286.5 117.5t111.5 306.5q0 118 -67.5 183t-190.5 65q-90 0 -151.5 -27t-154.5 -110h-163l270 759h758l-37 -178h-615l-137 -375q144 88 287 88q173 0 277 -96t104 -256q0 -134 -49.5 -253t-132 -202t-192.5 -131.5t-228 -48.5 q-186 0 -299 89.5t-113 269.5z" />
<glyph unicode="6" d="M90 350q0 193 62 425.5t151 371.5q194 305 485 305q164 0 262.5 -88t98.5 -236q0 -32 -2 -55h-180l2 10q-5 96 -58.5 153.5t-150.5 57.5q-156 0 -273 -151t-161 -410q172 172 366 172q164 0 264.5 -96t100.5 -254q0 -116 -47 -224.5t-124.5 -187.5t-182.5 -126.5 t-216 -47.5q-183 0 -290 102t-107 279zM270 365q0 -107 68.5 -172.5t175.5 -65.5q153 0 258 113t105 284q0 100 -65 162t-169 62q-157 0 -265 -110.5t-108 -272.5z" />
<glyph unicode="7" d="M178 0q92 216 206 404t263 377.5t391 461.5h-784l39 178h973l-35 -166q-267 -263 -509 -616.5t-343 -638.5h-201z" />
<glyph unicode="8" d="M51 305q0 311 324 459l-25 20q-64 52 -85 91.5t-21 107.5q0 128 71.5 236.5t190 170.5t254.5 62q169 0 272 -84.5t103 -218.5q0 -116 -52 -201.5t-176 -163.5l-33 -20q88 -50 130.5 -114t42.5 -152q0 -106 -47.5 -204t-125.5 -169t-182.5 -113.5t-214.5 -42.5 q-195 0 -310.5 90t-115.5 246zM231 336q0 -96 71.5 -152.5t186.5 -56.5q162 0 269.5 97.5t107.5 246.5q0 100 -71.5 156.5t-192.5 56.5q-156 0 -263.5 -100t-107.5 -248zM424 1006q0 -80 58 -125t161 -45q135 0 223 81t88 199q0 83 -59.5 130.5t-163.5 47.5 q-134 0 -220.5 -81t-86.5 -207z" />
<glyph unicode="9" d="M72 293q0 32 2 55h178q0 -106 52.5 -163.5t150.5 -57.5q309 0 432 553q-117 -98 -186.5 -131t-178.5 -33q-166 0 -264 95.5t-98 258.5q0 104 40.5 207t111.5 186.5t179.5 136t233.5 52.5q184 0 291.5 -106t107.5 -271q0 -209 -82 -514q-73 -276 -237.5 -434t-374.5 -158 q-163 0 -260.5 88t-97.5 236zM338 901q0 -109 61.5 -168t171.5 -59q156 0 265.5 112.5t109.5 274.5q0 102 -70.5 167.5t-175.5 65.5q-150 0 -256 -114.5t-106 -278.5z" />
<glyph unicode=":" horiz-adv-x="569" d="M82 0l45 211h213l-45 -211h-213zM266 862l29 211h229l-45 -211h-213z" />
<glyph unicode=";" horiz-adv-x="569" d="M10 -301l17 78q74 0 111 48.5t59 174.5h-121l45 211h215l-53 -244q-28 -128 -95.5 -198.5t-164.5 -69.5h-13zM258 862l45 211h213l-45 -211h-213z" />
<glyph unicode="&#x3c;" horiz-adv-x="1196" d="M233 459v106l685 600v-184l-533 -469l533 -469v-184z" />
<glyph unicode="=" horiz-adv-x="1196" d="M139 256v139h918v-139h-918zM139 629v139h918v-139h-918z" />
<glyph unicode="&#x3e;" horiz-adv-x="1196" d="M233 43l533 469l-533 469v184l685 -600v-106l-685 -600v184z" />
<glyph unicode="?" d="M262 1038q47 237 184.5 358.5t358.5 121.5q175 0 273 -88.5t98 -221.5q0 -119 -70 -225.5t-227 -224.5q-115 -87 -153 -132.5t-60 -121.5l-21 -96h-184l24 112q20 92 66 146t213 188q118 94 166.5 168t48.5 162q0 78 -61 127t-158 49q-135 0 -212.5 -77.5t-111.5 -244.5 h-174zM375 0l45 211h184l-45 -211h-184z" />
<glyph unicode="@" horiz-adv-x="2078" d="M61 373q0 140 45 281.5t125 267.5t195 236t249 189.5t293.5 125t323.5 45.5q207 0 373.5 -81.5t260 -225t93.5 -322.5q0 -161 -57.5 -305.5t-153 -246t-223 -161t-262.5 -59.5q-97 0 -150 34t-53 95v28q-11 -8 -43.5 -31.5t-40.5 -29t-33.5 -22.5t-33.5 -21t-28.5 -15 t-31.5 -13t-29.5 -7.5t-35 -6.5t-35.5 -1q-125 0 -201 78t-76 207q0 113 59 233.5t150 214t209.5 153.5t229.5 60q185 0 223 -182l74 135h168l-306 -573q-49 -92 -49 -119q0 -29 25 -51.5t59 -22.5q81 0 168 54t154 137t110 190t43 207q0 221 -170.5 366.5t-429.5 145.5 q-185 0 -370 -83t-324 -215.5t-226 -308.5t-87 -352q0 -239 173.5 -386.5t454.5 -147.5q169 0 418 65l27 -137q-238 -86 -502 -86q-147 0 -283 48t-240 132.5t-166.5 210.5t-62.5 273zM721 430q0 -76 44 -126t112 -50q72 0 149.5 60t135 145.5t95 179t37.5 160.5 q0 65 -36 99t-103 34q-99 0 -201.5 -80.5t-167.5 -198t-65 -223.5z" />
<glyph unicode="A" horiz-adv-x="1366" d="M-68 0l850 1493h246l207 -1493h-209l-55 449h-584l-252 -449h-203zM477 608h473l-82 682z" />
<glyph unicode="B" horiz-adv-x="1366" d="M59 0l318 1493h606q172 0 271.5 -80.5t99.5 -216.5t-72.5 -243t-206.5 -167q107 -46 153 -105t46 -153q0 -149 -74 -271t-197 -189.5t-268 -67.5h-676zM287 168h465q142 0 233.5 92.5t91.5 235.5q0 91 -55.5 138.5t-161.5 47.5h-463zM432 850h369q176 0 266 82t90 217 q0 91 -61.5 133.5t-192.5 42.5h-368z" />
<glyph unicode="C" horiz-adv-x="1478" d="M129 506q0 193 70.5 391t191.5 344q240 289 598 289q217 0 345.5 -127.5t140.5 -372.5h-197q-12 168 -91 251t-233 83q-277 0 -462 -272q-78 -117 -122 -263t-44 -286q0 -186 97 -300t257 -114q131 0 225 44.5t162 132t135 239.5h201q-130 -310 -306 -446t-446 -136 q-243 0 -382.5 148t-139.5 395z" />
<glyph unicode="D" horiz-adv-x="1478" d="M80 0l317 1493h578q223 0 350 -138.5t127 -355.5q0 -207 -62 -393t-168.5 -318.5t-253.5 -210t-311 -77.5h-577zM307 168h352q175 0 311.5 105.5t210.5 291t74 418.5q0 160 -93 251t-257 91h-350z" />
<glyph unicode="E" horiz-adv-x="1366" d="M82 0l317 1493h1037l-35 -168h-844l-102 -477h811l-37 -168h-809l-111 -512h879l-35 -168h-1071z" />
<glyph unicode="F" horiz-adv-x="1251" d="M82 0l317 1493h1002l-35 -168h-809l-102 -477h710l-35 -168h-710l-146 -680h-192z" />
<glyph unicode="G" horiz-adv-x="1593" d="M123 545q0 143 42 286t123 268t190.5 222t254 153t303.5 56q239 0 378.5 -124.5t139.5 -330.5v-12v-23h-186q-3 153 -105.5 238.5t-263.5 85.5q-143 0 -270.5 -65.5t-216.5 -173.5t-141 -251.5t-52 -295.5q0 -216 106 -332.5t316 -116.5q201 0 360 120.5t204 317.5l12 54 h-455l37 167h623l-168 -788h-121l-10 176q-142 -120 -265 -166.5t-284 -46.5q-248 0 -399.5 154t-151.5 428z" />
<glyph unicode="H" horiz-adv-x="1478" d="M68 0l317 1493h193l-138 -645h764l137 645h193l-317 -1493h-193l145 680h-763l-146 -680h-192z" />
<glyph unicode="I" horiz-adv-x="569" d="M102 0l318 1493h192l-317 -1493h-193z" />
<glyph unicode="J" horiz-adv-x="1024" d="M-4 260q0 46 12 98l27 121h192l-26 -125q-8 -33 -8 -69q0 -69 50.5 -112.5t133.5 -43.5q114 0 187 76t110 248l221 1040h192l-235 -1110q-43 -201 -178 -310.5t-338 -109.5q-160 0 -250 85.5t-90 211.5z" />
<glyph unicode="K" horiz-adv-x="1366" d="M59 0l318 1493h192l-161 -764l909 764h246l-740 -610l422 -883h-225l-344 770l-316 -260l-108 -510h-193z" />
<glyph unicode="L" d="M61 0l318 1493h192l-282 -1325h737l-35 -168h-930z" />
<glyph unicode="M" horiz-adv-x="1705" d="M51 0l318 1493h264l164 -1284l708 1284h269l-318 -1493h-182l264 1239l-684 -1239h-199l-157 1239l-265 -1239h-182z" />
<glyph unicode="N" horiz-adv-x="1478" d="M53 0l318 1493h213l512 -1225l260 1225h182l-317 -1493h-217l-510 1210l-258 -1210h-183z" />
<glyph unicode="O" horiz-adv-x="1593" d="M113 549q0 124 31.5 247.5t87.5 231t137.5 200.5t178 159.5t213 104.5t238.5 38q279 0 437.5 -149.5t158.5 -417.5q0 -154 -40.5 -301.5t-119 -273.5t-185.5 -221.5t-249 -149.5t-301 -54q-274 0 -430.5 152.5t-156.5 433.5zM309 565q0 -207 114 -321.5t304 -114.5 q143 0 270 67.5t214 178t137.5 255t50.5 296.5q0 207 -113.5 322.5t-310.5 115.5q-142 0 -267.5 -67.5t-212 -178.5t-136.5 -255.5t-50 -297.5z" />
<glyph unicode="P" horiz-adv-x="1366" d="M84 0l317 1493h619q187 0 283 -83.5t96 -246.5q0 -138 -64.5 -259t-185 -196t-270.5 -75h-467l-136 -633h-192zM446 801h398q157 0 257.5 94t100.5 231q0 97 -63 148t-183 51h-397z" />
<glyph unicode="Q" horiz-adv-x="1593" d="M113 551q0 148 42.5 292.5t123 267.5t187.5 217.5t245.5 148t287.5 53.5q282 0 439 -154t157 -430q0 -221 -92.5 -424t-261.5 -356l160 -158l-123 -119l-178 179q-113 -60 -198.5 -82.5t-203.5 -22.5q-276 0 -430.5 155.5t-154.5 432.5zM309 567q0 -206 113.5 -322 t314.5 -116q63 0 116 12.5t128 46.5l-127 127l119 115l151 -149q133 129 204 295.5t71 349.5q0 209 -114.5 323.5t-309.5 114.5q-141 0 -266.5 -67.5t-212 -178.5t-137 -255.5t-50.5 -295.5z" />
<glyph unicode="R" horiz-adv-x="1478" d="M88 0l318 1493h688q197 0 289 -76t92 -239q0 -152 -70 -255.5t-217 -185.5q72 -47 97.5 -88t25.5 -108q0 -62 -43 -283q-13 -70 -13 -102q0 -69 43 -109l-10 -47h-231q-8 57 -8 96q0 49 6 83t43 188q16 72 16 122q0 75 -53.5 114.5t-153.5 39.5h-489l-137 -643h-193z M453 811h473q171 0 261.5 93t90.5 239q0 93 -56 137.5t-188 44.5h-471z" />
<glyph unicode="S" horiz-adv-x="1366" d="M82 356q0 61 18 129h179q-9 -59 -9 -84q0 -139 82.5 -205.5t255.5 -66.5q205 0 335 89.5t130 219.5q0 72 -54.5 121t-176.5 84l-350 100q-103 29 -165.5 105t-62.5 172q0 78 42.5 175t105.5 161q168 174 487 174q214 0 338.5 -95.5t124.5 -252.5q0 -39 -16 -115h-181 q9 61 9 74q0 223 -312 223q-176 0 -288.5 -83t-112.5 -208q0 -67 44 -104.5t163 -71.5l352 -100q115 -34 182.5 -116t67.5 -185q0 -86 -50 -187.5t-128 -173.5q-184 -172 -517 -172q-232 0 -362.5 104t-130.5 289z" />
<glyph unicode="T" horiz-adv-x="1251" d="M221 1325l35 168h1174l-35 -168h-488l-282 -1325h-193l283 1325h-494z" />
<glyph unicode="U" horiz-adv-x="1478" d="M154 328q0 60 28 196l207 969h193l-222 -1038q-10 -41 -10 -90q0 -106 91 -171t239 -65q173 0 291.5 87t150.5 239l221 1038h193l-221 -1038q-47 -224 -230.5 -358t-441.5 -134q-219 0 -354 102.5t-135 262.5z" />
<glyph unicode="V" horiz-adv-x="1366" d="M276 1493h199l170 -1264l688 1264h203l-836 -1493h-204z" />
<glyph unicode="W" horiz-adv-x="1933" d="M260 0v1493h236v-1212l589 1212h197l84 -1212l539 1212h213l-697 -1493h-209l-84 1212l-593 -1212h-275z" />
<glyph unicode="X" horiz-adv-x="1366" d="M-57 0l694 766l-342 727h231l256 -584l508 584h234l-662 -727l367 -766h-236l-274 623l-541 -623h-235z" />
<glyph unicode="Y" horiz-adv-x="1366" d="M242 1493h229l279 -731l591 731h228l-754 -907l-125 -586h-192l125 586z" />
<glyph unicode="Z" horiz-adv-x="1251" d="M-45 0l37 172l1136 1153h-831l35 168h1075l-37 -172l-1139 -1153h897l-34 -168h-1139z" />
<glyph unicode="[" horiz-adv-x="569" d="M-63 -436l409 1929h381l-31 -147h-209l-348 -1635h209l-31 -147h-380z" />
<glyph unicode="\" horiz-adv-x="569" d="M199 1493h112l160 -1534h-113z" />
<glyph unicode="]" horiz-adv-x="569" d="M-150 -436l31 147h211l348 1635h-211l31 147h383l-410 -1929h-383z" />
<glyph unicode="^" horiz-adv-x="960" d="M133 674l479 778h150l151 -778h-141l-119 612l-372 -612h-148z" />
<glyph unicode="_" d="M-223 -362l22 102h1227l-22 -102h-1227z" />
<glyph unicode="`" horiz-adv-x="681" d="M190 1493h230l133 -303h-123z" />
<glyph unicode="a" d="M33 223q0 89 43 162.5t123 124.5q74 47 162.5 67t297.5 41q110 9 153.5 34t53.5 87l6 37q1 6 2 15t2 14.5t1 9.5q0 57 -62.5 94t-155.5 37q-114 0 -181.5 -46t-98.5 -144h-172q29 170 156.5 259t341.5 89q161 0 258.5 -64t97.5 -168q0 -20 -12 -75l-125 -588 q-2 -6 -2 -21q0 -59 77 -59q17 0 35 4l-26 -133q-26 -4 -47 -8.5t-28.5 -6t-15.5 -2.5t-18 -1q-80 0 -121 23.5t-41 82.5l2 31q-109 -91 -202 -120.5t-207 -29.5q-139 0 -218 66t-79 188zM213 244q0 -127 184 -127q135 0 251 70t136 165l37 176q-64 -22 -104 -29.5 t-195 -29.5q-163 -23 -236 -76t-73 -149z" />
<glyph unicode="b" d="M8 0l318 1493h172l-119 -563q98 104 172.5 139t187.5 35q155 0 259 -115t104 -287q0 -109 -26.5 -216t-78.5 -200t-123.5 -164t-167 -112t-202.5 -41q-111 0 -184.5 47.5t-120.5 151.5l-37 -168h-154zM279 383q0 -120 62 -188t167 -68q110 0 205 70t152 194t57 273 q0 132 -64 207t-176 75q-79 0 -152.5 -43t-129 -117t-88.5 -179.5t-33 -223.5z" />
<glyph unicode="c" horiz-adv-x="1024" d="M55 356q0 215 77 385t219.5 266.5t326.5 96.5q157 0 255.5 -89.5t98.5 -211.5q0 -3 -0.5 -10.5l-1.5 -22.5t-2 -27l-2 -30h-172q2 18 2 45q0 88 -56 138t-153 50q-119 0 -214.5 -81.5t-146 -210.5t-50.5 -275q0 -119 63 -185.5t170 -66.5q229 0 317 242h172 q-61 -213 -187.5 -306.5t-330.5 -93.5q-176 0 -280.5 108.5t-104.5 278.5z" />
<glyph unicode="d" d="M49 356q0 160 45 299t123 237.5t188 155t236 56.5q108 0 175.5 -43t117.5 -143l123 575h172l-318 -1493h-166l35 164q-44 -86 -155.5 -140.5t-223.5 -54.5q-161 0 -256.5 104t-95.5 283zM229 397q0 -131 63.5 -200.5t178.5 -69.5q106 0 197.5 75t144.5 200t53 268 q0 131 -63.5 203.5t-177.5 72.5q-109 0 -200.5 -76.5t-143.5 -202.5t-52 -270z" />
<glyph unicode="e" d="M72 362q0 124 49 274t121 247q76 103 197 162t255 59q166 0 278.5 -101t112.5 -249q0 -88 -28 -240l-4 -27h-791q-11 -40 -11 -77q0 -9 1 -17q0 -129 66.5 -197.5t189.5 -68.5q101 0 181.5 52t133.5 147h172q-47 -164 -188.5 -260.5t-327.5 -96.5q-182 0 -294.5 114 t-112.5 279zM299 635h602q4 50 4 59q0 116 -64 184t-173 68q-124 0 -227.5 -87.5t-141.5 -223.5z" />
<glyph unicode="f" horiz-adv-x="569" d="M80 0l199 936h-144l29 137h143l39 182q25 114 106 179t199 65q46 0 92 -10l-30 -141q-29 4 -56 4q-66 0 -98 -30.5t-49 -107.5l-31 -141h176l-28 -137h-176l-199 -936h-172z" />
<glyph unicode="g" d="M-37 -186q0 20 2 36l2 27h172v-29q0 -69 58.5 -108t162.5 -39q163 0 253.5 90t134.5 299l8 41q-156 -162 -353 -162q-157 0 -255.5 105t-98.5 272q0 117 28 229t82 207t126.5 167.5t167.5 113.5t200 41q197 0 285 -191l35 160h155l-190 -899q-41 -194 -88.5 -301.5 t-124.5 -181.5q-69 -66 -173 -101.5t-226 -35.5q-165 0 -264 71t-99 189zM229 379q0 -121 60.5 -191.5t163.5 -70.5q118 0 212 81.5t143.5 212.5t49.5 283q0 115 -59 183.5t-158 68.5q-117 0 -213 -82t-147.5 -211.5t-51.5 -273.5z" />
<glyph unicode="h" d="M41 0l317 1493h172l-116 -553q97 91 182.5 127.5t200.5 36.5q129 0 202.5 -68.5t73.5 -189.5q0 -40 -8 -76l-164 -770h-172l150 702q12 55 12 80q0 78 -48 126t-126 48q-140 0 -242 -98t-137 -266l-125 -592h-172z" />
<glyph unicode="i" horiz-adv-x="454" d="M39 0l227 1073h172l-227 -1073h-172zM279 1237l45 211h213l-45 -211h-213z" />
<glyph unicode="j" horiz-adv-x="454" d="M-236 -440l31 145q37 -4 51 -4q78 0 109.5 28.5t50.5 114.5l260 1229h172l-274 -1296q-28 -126 -106 -174.5t-255 -48.5q-18 0 -39 6zM279 1237l45 211h213l-45 -211h-213z" />
<glyph unicode="k" horiz-adv-x="1024" d="M16 0l318 1493h172l-184 -866l550 446h222l-455 -371l287 -702h-197l-233 596l-220 -180l-88 -416h-172z" />
<glyph unicode="l" horiz-adv-x="454" d="M37 0l317 1493h172l-317 -1493h-172z" />
<glyph unicode="m" horiz-adv-x="1705" d="M43 0l227 1073h156l-27 -133q98 92 179 128t186 36q199 0 248 -170q176 170 370 170q125 0 192.5 -69t67.5 -158q0 -67 -12 -113l-162 -764h-172l148 698q18 70 18 101q0 73 -41.5 115t-113.5 42q-112 0 -204.5 -81t-117.5 -201l-143 -674h-172l157 739q9 40 9 76 q0 63 -46.5 102t-121.5 39q-103 0 -194 -82.5t-116 -199.5l-143 -674h-172z" />
<glyph unicode="n" d="M41 0l227 1073h156l-27 -133q159 164 398 164q127 0 202.5 -69.5t75.5 -186.5q0 -42 -8 -78l-164 -770h-172l152 715q12 66 12 76q0 71 -51 118t-127 47q-138 0 -240 -98t-137 -266l-125 -592h-172z" />
<glyph unicode="o" d="M63 344q0 152 43.5 290t122 242.5t196.5 166t259 61.5q180 0 286.5 -108t106.5 -275q0 -212 -77.5 -383t-220.5 -270t-326 -99q-173 0 -281.5 103t-108.5 272zM244 385q0 -122 63.5 -190t173.5 -68q119 0 215 75t148.5 201.5t52.5 278.5q0 125 -63 194.5t-177 69.5 q-118 0 -213.5 -78.5t-147.5 -206.5t-52 -276z" />
<glyph unicode="p" d="M-88 -436l321 1509h166l-37 -172q40 86 153.5 144.5t225.5 58.5q164 0 260.5 -107.5t96.5 -291.5q0 -204 -74.5 -371.5t-211.5 -266t-308 -98.5q-108 0 -176.5 42t-118.5 136l-125 -583h-172zM274 385q0 -122 66 -190t180 -68q112 0 204.5 75t143 198t50.5 264 q0 132 -64.5 207t-179.5 75q-109 0 -202 -79.5t-145.5 -208.5t-52.5 -273z" />
<glyph unicode="q" d="M45 362q0 138 42.5 270t118.5 237.5t191.5 170t249.5 64.5q112 0 189 -53.5t112 -153.5l39 176h154l-322 -1509h-172l123 571q-106 -102 -176.5 -134t-183.5 -32q-156 0 -260.5 111t-104.5 282zM225 389q0 -122 66 -192t176 -70q105 0 196.5 70t148 199t56.5 286 q0 121 -61 192.5t-164 71.5q-172 0 -295 -160.5t-123 -396.5z" />
<glyph unicode="r" horiz-adv-x="681" d="M39 0l227 1073h156l-35 -168q95 109 172 154t166 45q25 0 66 -6l-37 -174h-21q-160 0 -262.5 -93t-140.5 -274l-119 -557h-172z" />
<glyph unicode="s" horiz-adv-x="1024" d="M27 231q0 49 12 105h182q-4 -40 -4 -51q0 -76 57.5 -117t163.5 -41q121 0 207 55.5t86 141.5q0 40 -28 69t-115 51l-152 39q-158 40 -220 93t-62 147q0 165 131 273t342 108q149 0 242.5 -67.5t93.5 -174.5q0 -32 -13 -88h-172q2 16 2 45q0 60 -49 93.5t-139 33.5 q-116 0 -187 -49.5t-71 -128.5t174 -123l156 -39q135 -34 191 -87.5t56 -147.5q0 -183 -137 -292.5t-366 -109.5q-179 0 -280 69.5t-101 192.5z" />
<glyph unicode="t" horiz-adv-x="569" d="M102 147q0 29 7 64l155 725h-145l28 137h146l63 295h172l-63 -295h182l-29 -137h-182l-153 -719q-4 -24 -4 -29q0 -25 19.5 -40t53.5 -15q22 0 99 17l-33 -150q-51 -14 -133 -14q-85 0 -134 43t-49 118z" />
<glyph unicode="u" d="M82 193q0 39 6 69l172 811h172l-158 -743q-6 -30 -6 -56q0 -72 50 -114.5t133 -42.5q131 0 231 99.5t135 264.5l125 592h172l-227 -1073h-156l27 125q-89 -81 -182 -118.5t-211 -37.5q-132 0 -207.5 60t-75.5 164z" />
<glyph unicode="v" horiz-adv-x="1024" d="M147 1073h189l100 -864l500 864h186l-637 -1073h-186z" />
<glyph unicode="w" horiz-adv-x="1478" d="M139 1073h226v-835l387 835h237v-835l402 835h186l-541 -1073h-219v856l-399 -856h-197z" />
<glyph unicode="x" horiz-adv-x="1024" d="M-68 0l490 547l-242 526h191l180 -393l342 393h199l-478 -526l252 -547h-192l-185 410l-356 -410h-201z" />
<glyph unicode="y" horiz-adv-x="1024" d="M-86 -426l33 154q83 -9 90 -9q57 0 90 21.5t74 85.5l106 166l-139 1081h184l94 -833l478 833h182l-754 -1298q-66 -114 -147.5 -167.5t-190.5 -53.5q-54 0 -100 20z" />
<glyph unicode="z" horiz-adv-x="1024" d="M-39 0l37 152l809 774h-602l31 147h802l-37 -153l-802 -773h667l-30 -147h-875z" />
<glyph unicode="{" horiz-adv-x="684" d="M84 459l31 141q90 15 138.5 80t78.5 203l74 340q30 135 103.5 202.5t174.5 67.5h96l-28 -133h-33q-76 0 -109.5 -28.5t-50.5 -108.5l-80 -371q-22 -109 -78.5 -192t-142.5 -130q57 -37 77.5 -78.5t20.5 -119.5q0 -66 -12 -125l-80 -371q-8 -33 -8 -67q0 -37 26.5 -53.5 t84.5 -16.5h32l-28 -135h-97q-83 0 -129.5 42.5t-46.5 119.5q0 50 13 110l71 340q19 87 19 137q0 62 -30 99.5t-87 46.5z" />
<glyph unicode="|" horiz-adv-x="532" d="M197 -436v1929h139v-1929h-139z" />
<glyph unicode="}" horiz-adv-x="684" d="M-135 -436l29 133h32q76 0 109.5 28.5t50.5 108.5l80 371q26 138 73 206t148 115q-98 85 -98 215q0 53 12 111l80 371q8 33 8 67q0 37 -26 53.5t-84 16.5h-33l28 133h97q78 0 127 -46.5t49 -121.5q0 -43 -12 -102l-72 -340q-19 -97 -19 -148q0 -57 30 -91.5t87 -43.5 l-31 -143q-174 -26 -217 -283l-73 -340q-31 -142 -100.5 -206t-178.5 -64h-96z" />
<glyph unicode="~" horiz-adv-x="1196" d="M178 600q38 144 111 220.5t172 76.5q53 0 104 -33l209 -141q52 -35 96 -35q54 0 87.5 37.5t50.5 116.5h106q-24 -138 -100 -215.5t-178 -77.5q-83 0 -152 53l-174 129q-45 31 -80 31q-95 0 -145 -162h-107z" />
<glyph unicode="&#xa1;" horiz-adv-x="569" d="M6 -420l152 717l137 432h82l-47 -432l-152 -717h-172zM279 862l45 211h172l-45 -211h-172z" />
<glyph unicode="&#xa2;" d="M94 350q0 198 70.5 362t205.5 268t312 122l39 184h82l-39 -184q135 0 233.5 -88t98.5 -211q0 -3 -0.5 -10.5l-1.5 -22.5t-2 -27l-2 -30h-172q2 18 2 47q0 157 -164 184l-25 4l-178 -839q109 12 179.5 73.5t117.5 186.5h172q-54 -202 -175.5 -303t-326.5 -113l-43 -199 h-82l43 201q-158 17 -251 124t-93 271zM274 375q0 -108 53.5 -178t145.5 -82l174 827q-109 -20 -195.5 -106.5t-132 -208t-45.5 -252.5z" />
<glyph unicode="&#xa3;" d="M-12 106q356 234 356 449q0 36 -20 102h-232l25 113h170q-13 37 -27.5 75.5t-20.5 54.5t-10 37.5t-4 45.5q0 130 81 248.5t215 190t282 71.5q170 0 275.5 -84.5t105.5 -222.5q0 -51 -19 -168h-180q19 72 19 117q0 92 -64.5 146t-173.5 54q-146 0 -245 -94.5t-99 -232.5 q1 -24 -1 -28t3 -23t8 -27.5t14 -40.5t21 -62l18 -57h328l-25 -113h-280l2 -22q4 -54 4 -55q0 -71 -37 -150q-37 -84 -84.5 -130t-216.5 -175q161 80 273 80q52 0 108 -19q128 -43 209 -43q47 0 87 13.5t105 50.5l52 -144q-134 -110 -291 -110q-56 0 -118.5 16t-166.5 56 q-64 22 -129 22q-107 0 -242 -76z" />
<glyph unicode="&#xa4;" d="M20 295l136 115q-78 126 -37 309q38 188 166 307l-88 111l118 98l93 -115q68 50 152 77.5t167 27.5t155 -27.5t119 -77.5l142 115l78 -98l-138 -111q78 -117 39 -307q-40 -181 -168 -309l86 -115l-112 -92l-88 119q-143 -113 -328 -113q-182 0 -283 113l-137 -119z M268 719q-21 -97 7.5 -181.5t100 -135t167.5 -50.5q146 0 271.5 109t158.5 258q31 146 -50.5 254t-226.5 108t-271 -108t-157 -254z" />
<glyph unicode="&#xa5;" d="M102 358l23 105h356l35 158h-358l22 104h316l-267 727h174l238 -659l508 659h174l-567 -727h315l-22 -104h-353l-34 -158h352l-21 -105h-354l-76 -358h-180l76 358h-357z" />
<glyph unicode="&#xa6;" horiz-adv-x="532" d="M197 336h139v-772h-139v772zM197 721v772h139v-772h-139z" />
<glyph unicode="&#xa7;" d="M27 -154q0 49 22 125h174q-16 -57 -16 -92q0 -69 50.5 -113.5t127.5 -44.5q94 0 161.5 62t67.5 147q0 45 -17.5 78t-59.5 70l-297 254q-70 60 -99.5 112t-29.5 117q0 62 27.5 132t70.5 120q35 39 68 62t126 73q-53 67 -53 158q0 98 62 188t164.5 144.5t214.5 54.5 q138 0 225.5 -77t87.5 -199q0 -21 -3 -35t-11 -42.5t-15 -66.5h-172q21 62 21 105q0 72 -46.5 114.5t-123.5 42.5q-86 0 -150.5 -61t-64.5 -141q0 -36 17 -61t69 -66l260 -207q103 -83 130 -129t27 -123q0 -133 -81.5 -245t-219.5 -157q34 -46 48 -86t14 -92 q0 -71 -34.5 -143t-93 -129.5t-142.5 -94t-175 -36.5q-150 0 -240.5 77t-90.5 205zM291 633q0 -50 19 -84t71 -80l283 -248q198 103 198 252q0 46 -29 96t-79 90l-269 218q-107 -62 -150.5 -116.5t-43.5 -127.5z" />
<glyph unicode="&#xa8;" horiz-adv-x="681" d="M242 1237l45 209h186l-45 -209h-186zM573 1237l45 209h187l-45 -209h-187z" />
<glyph unicode="&#xa9;" horiz-adv-x="1509" d="M43 684q0 145 56.5 277t152 228t227.5 153t277 57q193 0 357.5 -96t260.5 -261t96 -358t-96 -357.5t-260.5 -260t-357.5 -95.5q-145 0 -277 56.5t-227.5 152t-152 227.5t-56.5 277zM131 684q0 -170 83.5 -314t227.5 -227.5t314 -83.5q127 0 243 49.5t200 133t133.5 199.5 t49.5 243t-49.5 243.5t-133.5 200.5t-200 133.5t-243 49.5q-170 0 -314 -84t-227.5 -228.5t-83.5 -314.5zM354 553q-2 105 39 213t111 186q142 160 356 160q132 0 211 -72.5t86 -212.5h-131q-8 91 -53.5 136t-134.5 45q-158 0 -263 -144q-43 -62 -67 -138.5t-23 -147.5 q3 -97 60 -157.5t147 -60.5q112 0 176.5 51t120.5 173h135q-75 -175 -179.5 -251.5t-268.5 -76.5q-147 0 -233 81t-89 216z" />
<glyph unicode="&#xaa;" horiz-adv-x="757" d="M117 621l22 104h590l-22 -104h-590zM176 981q0 118 103 182q44 28 98.5 41t175.5 25q69 8 89 18.5t30 48.5l4 17q4 20 4 30q0 7 -1 13.5t-8.5 18t-19.5 19.5t-37.5 14.5t-60.5 6.5q-130 0 -164 -117h-115q37 131 107 176.5t207 45.5q98 0 155.5 -36.5t57.5 -99.5 q0 -30 -2 -36l-84 -390l-2 -14q0 -11 11 -20t24 -9q10 1 18 3l16 2l-18 -91l-21 -4q-35 -8 -53 -8q-87 0 -96 88q-94 -88 -223 -88q-94 0 -144.5 43t-50.5 121zM299 995q0 -75 109 -75q69 0 136.5 43t76.5 92l20 104q-42 -14 -104 -22q-77 -11 -125.5 -24t-72.5 -32t-32 -38 t-8 -48z" />
<glyph unicode="&#xab;" d="M199 465l39 182l362 250l-37 -170l-248 -172l177 -170l-37 -168zM618 465l39 182l363 250l-37 -170l-248 -172l176 -170l-37 -168z" />
<glyph unicode="&#xac;" horiz-adv-x="1196" d="M139 629v139h918v-442h-139v303h-779z" />
<glyph unicode="&#xad;" horiz-adv-x="681" d="M96 492l31 147h489l-30 -147h-490z" />
<glyph unicode="&#xae;" horiz-adv-x="1509" d="M43 684q0 145 56.5 277t152 228t227.5 153t277 57q193 0 357.5 -96t260.5 -261t96 -358t-96 -357.5t-260.5 -260t-357.5 -95.5q-145 0 -277 56.5t-227.5 152t-152 227.5t-56.5 277zM131 684q0 -170 83.5 -314t227.5 -227.5t314 -83.5q127 0 243 49.5t200 133t133.5 199.5 t49.5 243t-49.5 243.5t-133.5 200.5t-200 133.5t-243 49.5q-170 0 -314 -84t-227.5 -228.5t-83.5 -314.5zM346 276l174 816h412q120 0 176.5 -43t58.5 -134q1 -81 -36.5 -136t-118.5 -99q38 -24 51.5 -46.5t13.5 -58.5q0 -34 -22 -153q-6 -34 -6 -53q3 -37 28 -56l-8 -37 h-149q-7 47 -7 58q-2 26 1.5 45t23.5 102q8 31 8 64q0 76 -117 76h-280l-74 -345h-129zM571 727h271q96 0 146 47t48 121q-2 46 -34 68t-105 22h-270z" />
<glyph unicode="&#xaf;" horiz-adv-x="681" d="M223 1272l31 141h563l-31 -141h-563z" />
<glyph unicode="&#xb0;" horiz-adv-x="819" d="M250 1141q28 128 131.5 213.5t230.5 85.5q128 0 196 -86t40 -213q-26 -127 -130.5 -213t-232.5 -86q-127 0 -194 85.5t-41 213.5zM348 1141q-17 -83 29 -147t127 -64t155 64t91 147q19 82 -28 146.5t-128 64.5t-154 -64t-92 -147z" />
<glyph unicode="&#xb1;" horiz-adv-x="1196" d="M139 0v139h918v-139h-918zM139 582v139h389v389h140v-389h389v-139h-389v-318h-140v318h-389z" />
<glyph unicode="&#xb2;" horiz-adv-x="681" d="M102 686q34 131 95.5 200t203.5 136l119 57q116 55 135 142q12 58 -23 96.5t-100 38.5q-74 0 -121.5 -41t-74.5 -137h-111q34 139 115 206.5t215 67.5q117 0 177 -63.5t38 -163.5q-30 -144 -223 -232l-125 -59q-65 -29 -100 -60t-62 -83h412l-23 -105h-547z" />
<glyph unicode="&#xb3;" horiz-adv-x="681" d="M162 918h112q-14 -85 16.5 -123.5t112.5 -38.5q75 0 127.5 39t67.5 108q16 79 -29.5 104t-167.5 25l21 92q115 0 161 23t60 86q12 57 -18 90t-93 33q-77 0 -120.5 -37t-61.5 -123h-112q62 256 315 256q115 0 170 -58.5t33 -158.5q-21 -106 -135 -152q117 -45 90 -180 q-25 -111 -114 -176t-216 -65q-131 0 -188 66.5t-31 189.5z" />
<glyph unicode="&#xb4;" horiz-adv-x="681" d="M430 1190l262 303h230l-369 -303h-123z" />
<glyph unicode="&#xb5;" d="M-66 -451l324 1524h172l-158 -745q-6 -30 -6 -62q0 -76 47 -120t129 -44q132 0 233 99.5t136 263.5l129 608h172l-190 -893q-2 -6 -2 -22q0 -64 77 -64q11 0 35 6l-28 -129q-27 -5 -51 -10t-34.5 -6.5t-25.5 -1.5q-83 0 -118.5 30t-35.5 101q0 15 6 39 q-164 -170 -374 -170q-57 0 -95.5 13.5t-70.5 45.5l-99 -463h-172z" />
<glyph unicode="&#xb6;" horiz-adv-x="1099" d="M195 893q0 114 48.5 224.5t127.5 192.5t185 132.5t216 50.5h512l-29 -131h-114l-367 -1727h-131l367 1727h-170l-367 -1727h-131l190 895q-158 4 -247.5 101t-89.5 262z" />
<glyph unicode="&#xb7;" horiz-adv-x="569" d="M178 512q0 44 31.5 75t75.5 31t75 -31t31 -75t-31 -75t-75 -31t-75.5 31t-31.5 75z" />
<glyph unicode="&#xb8;" horiz-adv-x="681" d="M-100 -401l57 77q115 -59 193 -59q57 0 93 31.5t36 81.5q0 34 -18.5 55.5t-45.5 21.5q-29 0 -55 -8l-47 13l104 198h105l-64 -121h43q56 0 96.5 -41.5t40.5 -95.5q0 -104 -82.5 -163.5t-214.5 -59.5q-59 0 -111 15t-130 55z" />
<glyph unicode="&#xb9;" horiz-adv-x="681" d="M299 1219l18 84l27 2q97 6 137 33.5t82 113.5h76l-164 -766h-110l112 533h-178z" />
<glyph unicode="&#xba;" horiz-adv-x="747" d="M131 621l23 104h538l-22 -104h-539zM203 1042q0 206 106.5 342t276.5 136q113 0 175 -64.5t62 -171.5q0 -196 -109 -331.5t-280 -135.5q-103 0 -167 62.5t-64 162.5zM326 1075q0 -72 36 -111.5t101 -39.5q100 0 168.5 98.5t68.5 241.5q0 69 -35.5 109t-97.5 40 q-101 0 -171 -98t-70 -240z" />
<glyph unicode="&#xbb;" d="M145 217l37 170l252 172l-180 170l37 168l260 -248l-39 -182zM553 217l37 170l252 172l-180 170l36 168l260 -248l-38 -182z" />
<glyph unicode="&#xbc;" horiz-adv-x="1708" d="M238 -51l1245 1503h119l-1246 -1503h-118zM322 1219l18 84l27 2q97 6 137 33.5t82 113.5h76l-164 -766h-111l113 533h-178zM936 180l22 107l469 479h82l-102 -490h121l-21 -96h-121l-38 -180h-111l39 180h-340zM1063 276h233l64 306z" />
<glyph unicode="&#xbd;" horiz-adv-x="1708" d="M147 -51l1246 1503h118l-1245 -1503h-119zM322 1219l18 84l27 2q97 6 137 33.5t82 113.5h76l-164 -766h-111l113 533h-178zM907 0q34 130 95 199.5t204 138.5l117 55q119 55 135 142q13 58 -22 96.5t-101 38.5q-73 0 -120 -41t-74 -137h-113q34 139 115 206.5t215 67.5 q117 0 178 -63.5t39 -163.5q-30 -144 -223 -232l-125 -59q-65 -29 -100 -60.5t-62 -83.5h412l-23 -104h-547z" />
<glyph unicode="&#xbe;" horiz-adv-x="1708" d="M223 918h113q-14 -85 16.5 -123.5t112.5 -38.5q75 0 127 39t67 108q16 79 -29 104t-167 25l20 92q115 0 161.5 23t60.5 86q12 57 -18 90t-93 33q-77 0 -120.5 -37t-61.5 -123h-113q62 256 315 256q115 0 170 -58.5t33 -158.5q-21 -106 -135 -152q117 -45 90 -180 q-25 -111 -114 -176t-216 -65q-131 0 -188 66.5t-31 189.5zM279 -51l1245 1503h118l-1245 -1503h-118zM915 180l23 107l469 479h82l-103 -490h121l-20 -96h-121l-39 -180h-110l38 180h-340zM1042 276h234l63 306z" />
<glyph unicode="&#xbf;" d="M-14 -135q0 119 70 225.5t227 224.5q115 87 153 132.5t60 121.5l20 97h184l-24 -113q-20 -92 -66 -146t-213 -188q-118 -94 -166.5 -168t-48.5 -162q0 -78 61 -127t158 -49q135 0 212.5 77.5t111.5 244.5h174q-47 -236 -184.5 -357.5t-358.5 -121.5q-175 0 -272.5 88 t-97.5 221zM557 862l45 211h184l-45 -211h-184z" />
<glyph unicode="&#xc0;" horiz-adv-x="1366" d="M-68 0l850 1493h246l207 -1493h-209l-55 449h-584l-252 -449h-203zM477 608h473l-82 682zM528 1876h275l198 -272h-147z" />
<glyph unicode="&#xc1;" horiz-adv-x="1366" d="M-68 0l850 1493h246l207 -1493h-209l-55 449h-584l-252 -449h-203zM477 608h473l-82 682zM854 1604l315 272h275l-443 -272h-147z" />
<glyph unicode="&#xc2;" horiz-adv-x="1366" d="M-68 0l850 1493h246l207 -1493h-209l-55 449h-584l-252 -449h-203zM477 608h473l-82 682zM575 1604l316 276h233l156 -276h-154l-137 182l-256 -182h-158z" />
<glyph unicode="&#xc3;" horiz-adv-x="1366" d="M-68 0l850 1493h246l207 -1493h-209l-55 449h-584l-252 -449h-203zM477 608h473l-82 682zM594 1630q38 113 88 162t125 49q14 0 132 -32.5t146 -32.5q31 0 51 15.5t48 59.5h108q-32 -100 -92 -159.5t-129 -59.5q-34 0 -73.5 10t-137.5 44q-34 12 -55 12q-34 0 -53 -14 t-50 -54h-108z" />
<glyph unicode="&#xc4;" horiz-adv-x="1366" d="M-68 0l850 1493h246l207 -1493h-209l-55 449h-584l-252 -449h-203zM477 608h473l-82 682zM676 1636l45 209h186l-45 -209h-186zM1008 1636l45 209h186l-45 -209h-186z" />
<glyph unicode="&#xc5;" horiz-adv-x="1366" d="M-68 0l850 1493h246l207 -1493h-209l-55 449h-584l-252 -449h-203zM477 608h473l-82 682zM762 1733q0 89 76 162t168 73q69 0 115 -43t46 -106q0 -95 -74.5 -169.5t-170.5 -74.5q-67 0 -113.5 46t-46.5 112zM866 1753q0 -35 22 -57.5t56 -22.5q45 0 83 37t38 80 q0 34 -22 57t-54 23q-47 0 -85 -37t-38 -80z" />
<glyph unicode="&#xc6;" horiz-adv-x="2048" d="M-80 0l930 1493h1274l-35 -168h-760l-100 -477h719l-37 -168h-719l-109 -512h795l-35 -168h-987l92 438h-551l-266 -438h-211zM498 604h487l152 721h-205z" />
<glyph unicode="&#xc7;" horiz-adv-x="1478" d="M129 506q0 193 70.5 391t191.5 344q240 289 598 289q217 0 345.5 -127.5t140.5 -372.5h-197q-12 168 -91 251t-233 83q-277 0 -462 -272q-78 -117 -122 -263t-44 -286q0 -186 97 -300t257 -114q131 0 225 44.5t162 132t135 239.5h201q-125 -295 -288 -431.5t-408 -148.5 l-39 -76h43q56 0 96.5 -41.5t40.5 -95.5q0 -104 -82.5 -163.5t-214.5 -59.5q-59 0 -111.5 15t-130.5 55l58 77q115 -59 192 -59q57 0 93 31.5t36 81.5q0 35 -18 56t-45 21q-30 0 -56 -8l-47 13l80 153q-221 15 -347 161t-126 380z" />
<glyph unicode="&#xc8;" horiz-adv-x="1366" d="M82 0l317 1493h1037l-35 -168h-844l-102 -477h811l-37 -168h-809l-111 -512h879l-35 -168h-1071zM541 1876h274l199 -272h-148z" />
<glyph unicode="&#xc9;" horiz-adv-x="1366" d="M82 0l317 1493h1037l-35 -168h-844l-102 -477h811l-37 -168h-809l-111 -512h879l-35 -168h-1071zM866 1604l316 272h274l-442 -272h-148z" />
<glyph unicode="&#xca;" horiz-adv-x="1366" d="M82 0l317 1493h1037l-35 -168h-844l-102 -477h811l-37 -168h-809l-111 -512h879l-35 -168h-1071zM588 1604l315 276h234l155 -276h-153l-138 182l-256 -182h-157z" />
<glyph unicode="&#xcb;" horiz-adv-x="1366" d="M82 0l317 1493h1037l-35 -168h-844l-102 -477h811l-37 -168h-809l-111 -512h879l-35 -168h-1071zM688 1636l45 209h187l-46 -209h-186zM1020 1636l45 209h186l-45 -209h-186z" />
<glyph unicode="&#xcc;" horiz-adv-x="569" d="M102 0l318 1493h192l-317 -1493h-193zM162 1876h274l199 -272h-148z" />
<glyph unicode="&#xcd;" horiz-adv-x="569" d="M102 0l318 1493h192l-317 -1493h-193zM442 1604l316 272h274l-442 -272h-148z" />
<glyph unicode="&#xce;" horiz-adv-x="569" d="M102 0l318 1493h192l-317 -1493h-193zM186 1604l316 276h233l156 -276h-154l-137 182l-256 -182h-158z" />
<glyph unicode="&#xcf;" horiz-adv-x="569" d="M102 0l318 1493h192l-317 -1493h-193zM287 1636l45 209h186l-45 -209h-186zM618 1636l46 209h186l-45 -209h-187z" />
<glyph unicode="&#xd0;" horiz-adv-x="1478" d="M80 0l147 698h-139l27 138h143l139 657h578q223 0 350 -138.5t127 -355.5q0 -207 -62 -393t-168.5 -318.5t-253.5 -210t-311 -77.5h-577zM307 168h352q175 0 311.5 106t210.5 291.5t74 417.5q0 161 -93 251.5t-257 90.5h-350l-104 -489h340l-29 -138h-342z" />
<glyph unicode="&#xd1;" horiz-adv-x="1478" d="M53 0l318 1493h213l512 -1225l260 1225h182l-317 -1493h-217l-510 1210l-258 -1210h-183zM643 1630q38 113 88 162t125 49q14 0 132.5 -32.5t146.5 -32.5q31 0 50.5 15t47.5 60h108q-32 -100 -92 -159.5t-129 -59.5q-34 0 -73.5 10t-137.5 44q-35 12 -55 12 q-34 0 -52.5 -13.5t-49.5 -54.5h-109z" />
<glyph unicode="&#xd2;" horiz-adv-x="1593" d="M113 549q0 124 31.5 247.5t87.5 231t137.5 200.5t178 159.5t213 104.5t238.5 38q279 0 437.5 -149.5t158.5 -417.5q0 -154 -40.5 -301.5t-119 -273.5t-185.5 -221.5t-249 -149.5t-301 -54q-274 0 -430.5 152.5t-156.5 433.5zM309 565q0 -207 114 -321.5t304 -114.5 q143 0 270 67.5t214 178t137.5 255t50.5 296.5q0 207 -113.5 322.5t-310.5 115.5q-142 0 -267.5 -67.5t-212 -178.5t-136.5 -255.5t-50 -297.5zM616 1876h275l199 -272h-148z" />
<glyph unicode="&#xd3;" horiz-adv-x="1593" d="M113 549q0 124 31.5 247.5t87.5 231t137.5 200.5t178 159.5t213 104.5t238.5 38q279 0 437.5 -149.5t158.5 -417.5q0 -154 -40.5 -301.5t-119 -273.5t-185.5 -221.5t-249 -149.5t-301 -54q-274 0 -430.5 152.5t-156.5 433.5zM309 565q0 -207 114 -321.5t304 -114.5 q143 0 270 67.5t214 178t137.5 255t50.5 296.5q0 207 -113.5 322.5t-310.5 115.5q-142 0 -267.5 -67.5t-212 -178.5t-136.5 -255.5t-50 -297.5zM940 1604l315 272h275l-443 -272h-147z" />
<glyph unicode="&#xd4;" horiz-adv-x="1593" d="M113 549q0 124 31.5 247.5t87.5 231t137.5 200.5t178 159.5t213 104.5t238.5 38q279 0 437.5 -149.5t158.5 -417.5q0 -154 -40.5 -301.5t-119 -273.5t-185.5 -221.5t-249 -149.5t-301 -54q-274 0 -430.5 152.5t-156.5 433.5zM309 565q0 -207 114 -321.5t304 -114.5 q143 0 270 67.5t214 178t137.5 255t50.5 296.5q0 207 -113.5 322.5t-310.5 115.5q-142 0 -267.5 -67.5t-212 -178.5t-136.5 -255.5t-50 -297.5zM662 1604l315 276h233l156 -276h-154l-137 182l-256 -182h-157z" />
<glyph unicode="&#xd5;" horiz-adv-x="1593" d="M113 549q0 124 31.5 247.5t87.5 231t137.5 200.5t178 159.5t213 104.5t238.5 38q279 0 437.5 -149.5t158.5 -417.5q0 -154 -40.5 -301.5t-119 -273.5t-185.5 -221.5t-249 -149.5t-301 -54q-274 0 -430.5 152.5t-156.5 433.5zM309 565q0 -207 114 -321.5t304 -114.5 q143 0 270 67.5t214 178t137.5 255t50.5 296.5q0 207 -113.5 322.5t-310.5 115.5q-142 0 -267.5 -67.5t-212 -178.5t-136.5 -255.5t-50 -297.5zM682 1630q38 113 88 162t125 49q14 0 132.5 -32.5t146.5 -32.5q31 0 50.5 15t47.5 60h108q-32 -100 -92 -159.5t-129 -59.5 q-34 0 -73.5 10t-137.5 44q-35 12 -55 12q-34 0 -52.5 -13.5t-49.5 -54.5h-109z" />
<glyph unicode="&#xd6;" horiz-adv-x="1593" d="M113 549q0 124 31.5 247.5t87.5 231t137.5 200.5t178 159.5t213 104.5t238.5 38q279 0 437.5 -149.5t158.5 -417.5q0 -154 -40.5 -301.5t-119 -273.5t-185.5 -221.5t-249 -149.5t-301 -54q-274 0 -430.5 152.5t-156.5 433.5zM309 565q0 -207 114 -321.5t304 -114.5 q143 0 270 67.5t214 178t137.5 255t50.5 296.5q0 207 -113.5 322.5t-310.5 115.5q-142 0 -267.5 -67.5t-212 -178.5t-136.5 -255.5t-50 -297.5zM764 1636l45 209h186l-45 -209h-186zM1096 1636l45 209h186l-45 -209h-186z" />
<glyph unicode="&#xd7;" horiz-adv-x="1196" d="M225 238l275 274l-275 274l99 99l274 -275l274 275l99 -99l-275 -274l275 -274l-99 -99l-274 275l-274 -275z" />
<glyph unicode="&#xd8;" horiz-adv-x="1593" d="M-16 43l204 180q-75 135 -75 326q0 124 31.5 247.5t87.5 231t137.5 200.5t178 159.5t213 104.5t238.5 38q306 0 465 -176l193 172l67 -76l-202 -178q73 -125 73 -309q0 -154 -40.5 -301.5t-119 -273.5t-185.5 -221.5t-249 -149.5t-301 -54q-299 0 -454 178l-197 -174z M309 565q0 -116 37 -200l965 854q-111 145 -336 145q-142 0 -267.5 -67.5t-212 -178.5t-136.5 -255.5t-50 -297.5zM397 274q114 -145 330 -145q143 0 270 67.5t214 178t137.5 255t50.5 296.5q0 117 -37 204z" />
<glyph unicode="&#xd9;" horiz-adv-x="1478" d="M154 328q0 60 28 196l207 969h193l-222 -1038q-10 -41 -10 -90q0 -106 91 -171t239 -65q173 0 291.5 87t150.5 239l221 1038h193l-221 -1038q-47 -224 -230.5 -358t-441.5 -134q-219 0 -354 102.5t-135 262.5zM586 1876h274l199 -272h-148z" />
<glyph unicode="&#xda;" horiz-adv-x="1478" d="M154 328q0 60 28 196l207 969h193l-222 -1038q-10 -41 -10 -90q0 -106 91 -171t239 -65q173 0 291.5 87t150.5 239l221 1038h193l-221 -1038q-47 -224 -230.5 -358t-441.5 -134q-219 0 -354 102.5t-135 262.5zM911 1604l316 272h274l-442 -272h-148z" />
<glyph unicode="&#xdb;" horiz-adv-x="1478" d="M154 328q0 60 28 196l207 969h193l-222 -1038q-10 -41 -10 -90q0 -106 91 -171t239 -65q173 0 291.5 87t150.5 239l221 1038h193l-221 -1038q-47 -224 -230.5 -358t-441.5 -134q-219 0 -354 102.5t-135 262.5zM633 1604l315 276h234l155 -276h-153l-137 182l-256 -182 h-158z" />
<glyph unicode="&#xdc;" horiz-adv-x="1478" d="M154 328q0 60 28 196l207 969h193l-222 -1038q-10 -41 -10 -90q0 -106 91 -171t239 -65q173 0 291.5 87t150.5 239l221 1038h193l-221 -1038q-47 -224 -230.5 -358t-441.5 -134q-219 0 -354 102.5t-135 262.5zM733 1636l45 209h187l-45 -209h-187zM1065 1636l45 209h186 l-45 -209h-186z" />
<glyph unicode="&#xdd;" horiz-adv-x="1366" d="M242 1493h229l279 -731l591 731h228l-754 -907l-125 -586h-192l125 586zM860 1604l316 272h274l-442 -272h-148z" />
<glyph unicode="&#xde;" horiz-adv-x="1366" d="M84 0l317 1493h193l-51 -242h426q187 0 283 -83t96 -246q0 -138 -64.5 -259t-185.5 -196.5t-271 -75.5h-467l-84 -391h-192zM395 559h398q157 0 257.5 94.5t100.5 231.5q0 97 -63 147.5t-183 50.5h-399z" />
<glyph unicode="&#xdf;" horiz-adv-x="1251" d="M41 0l233 1102q35 168 190.5 279.5t344.5 111.5q111 0 203.5 -37t148.5 -108.5t56 -163.5q0 -118 -77.5 -219.5t-195.5 -143.5q100 -29 157.5 -108.5t57.5 -184.5q0 -43 -8 -79q-47 -225 -199.5 -357.5t-363.5 -132.5q-97 0 -170 8l37 170q82 -10 153 -10 q151 0 262 113.5t111 277.5q0 110 -83.5 153.5t-250.5 43.5l35 168q83 0 162.5 31.5t134.5 94t55 140.5q0 84 -73.5 134t-180.5 50q-117 0 -216 -65t-120 -166l-233 -1102h-170z" />
<glyph unicode="&#xe0;" d="M33 223q0 89 43 162.5t123 124.5q74 47 162.5 67t297.5 41q110 9 153.5 34t53.5 87l6 37q1 6 2 15t2 14.5t1 9.5q0 57 -62.5 94t-155.5 37q-114 0 -181.5 -46t-98.5 -144h-172q29 170 156.5 259t341.5 89q161 0 258.5 -64t97.5 -168q0 -20 -12 -75l-125 -588 q-2 -6 -2 -21q0 -59 77 -59q17 0 35 4l-26 -133q-26 -4 -47 -8.5t-28.5 -6t-15.5 -2.5t-18 -1q-80 0 -121 23.5t-41 82.5l2 31q-109 -91 -202 -120.5t-207 -29.5q-139 0 -218 66t-79 188zM213 244q0 -127 184 -127q135 0 251 70t136 165l37 176q-64 -22 -104 -29.5 t-195 -29.5q-163 -23 -236 -76t-73 -149zM422 1493h229l133 -303h-122z" />
<glyph unicode="&#xe1;" d="M33 223q0 89 43 162.5t123 124.5q74 47 162.5 67t297.5 41q110 9 153.5 34t53.5 87l6 37q1 6 2 15t2 14.5t1 9.5q0 57 -62.5 94t-155.5 37q-114 0 -181.5 -46t-98.5 -144h-172q29 170 156.5 259t341.5 89q161 0 258.5 -64t97.5 -168q0 -20 -12 -75l-125 -588 q-2 -6 -2 -21q0 -59 77 -59q17 0 35 4l-26 -133q-26 -4 -47 -8.5t-28.5 -6t-15.5 -2.5t-18 -1q-80 0 -121 23.5t-41 82.5l2 31q-109 -91 -202 -120.5t-207 -29.5q-139 0 -218 66t-79 188zM213 244q0 -127 184 -127q135 0 251 70t136 165l37 176q-64 -22 -104 -29.5 t-195 -29.5q-163 -23 -236 -76t-73 -149zM659 1190l263 303h229l-369 -303h-123z" />
<glyph unicode="&#xe2;" d="M33 223q0 89 43 162.5t123 124.5q74 47 162.5 67t297.5 41q110 9 153.5 34t53.5 87l6 37q1 6 2 15t2 14.5t1 9.5q0 57 -62.5 94t-155.5 37q-114 0 -181.5 -46t-98.5 -144h-172q29 170 156.5 259t341.5 89q161 0 258.5 -64t97.5 -168q0 -20 -12 -75l-125 -588 q-2 -6 -2 -21q0 -59 77 -59q17 0 35 4l-26 -133q-26 -4 -47 -8.5t-28.5 -6t-15.5 -2.5t-18 -1q-80 0 -121 23.5t-41 82.5l2 31q-109 -91 -202 -120.5t-207 -29.5q-139 0 -218 66t-79 188zM213 244q0 -127 184 -127q135 0 251 70t136 165l37 176q-64 -22 -104 -29.5 t-195 -29.5q-163 -23 -236 -76t-73 -149zM426 1188l262 307h195l131 -307h-129l-115 203l-213 -203h-131z" />
<glyph unicode="&#xe3;" d="M33 223q0 89 43 162.5t123 124.5q74 47 162.5 67t297.5 41q110 9 153.5 34t53.5 87l6 37q1 6 2 15t2 14.5t1 9.5q0 57 -62.5 94t-155.5 37q-114 0 -181.5 -46t-98.5 -144h-172q29 170 156.5 259t341.5 89q161 0 258.5 -64t97.5 -168q0 -20 -12 -75l-125 -588 q-2 -6 -2 -21q0 -59 77 -59q17 0 35 4l-26 -133q-26 -4 -47 -8.5t-28.5 -6t-15.5 -2.5t-18 -1q-80 0 -121 23.5t-41 82.5l2 31q-109 -91 -202 -120.5t-207 -29.5q-139 0 -218 66t-79 188zM213 244q0 -127 184 -127q135 0 251 70t136 165l37 176q-64 -22 -104 -29.5 t-195 -29.5q-163 -23 -236 -76t-73 -149zM389 1231q38 113 88 162t125 49q14 0 132.5 -33t146.5 -33q30 0 50 15.5t48 60.5h108q-32 -100 -92 -159.5t-129 -59.5q-34 0 -74.5 10t-136.5 43q-35 12 -55 12q-35 0 -53.5 -13.5t-48.5 -53.5h-109z" />
<glyph unicode="&#xe4;" d="M33 223q0 89 43 162.5t123 124.5q74 47 162.5 67t297.5 41q110 9 153.5 34t53.5 87l6 37q1 6 2 15t2 14.5t1 9.5q0 57 -62.5 94t-155.5 37q-114 0 -181.5 -46t-98.5 -144h-172q29 170 156.5 259t341.5 89q161 0 258.5 -64t97.5 -168q0 -20 -12 -75l-125 -588 q-2 -6 -2 -21q0 -59 77 -59q17 0 35 4l-26 -133q-26 -4 -47 -8.5t-28.5 -6t-15.5 -2.5t-18 -1q-80 0 -121 23.5t-41 82.5l2 31q-109 -91 -202 -120.5t-207 -29.5q-139 0 -218 66t-79 188zM213 244q0 -127 184 -127q135 0 251 70t136 165l37 176q-64 -22 -104 -29.5 t-195 -29.5q-163 -23 -236 -76t-73 -149zM471 1237l45 209h186l-45 -209h-186zM803 1237l45 209h186l-45 -209h-186z" />
<glyph unicode="&#xe5;" d="M33 223q0 89 43 162.5t123 124.5q74 47 162.5 67t297.5 41q110 9 153.5 34t53.5 87l6 37q1 6 2 15t2 14.5t1 9.5q0 57 -62.5 94t-155.5 37q-114 0 -181.5 -46t-98.5 -144h-172q29 170 156.5 259t341.5 89q161 0 258.5 -64t97.5 -168q0 -20 -12 -75l-125 -588 q-2 -6 -2 -21q0 -59 77 -59q17 0 35 4l-26 -133q-26 -4 -47 -8.5t-28.5 -6t-15.5 -2.5t-18 -1q-80 0 -121 23.5t-41 82.5l2 31q-109 -91 -202 -120.5t-207 -29.5q-139 0 -218 66t-79 188zM213 244q0 -127 184 -127q135 0 251 70t136 165l37 176q-64 -22 -104 -29.5 t-195 -29.5q-163 -23 -236 -76t-73 -149zM551 1303q0 89 76 162t168 73q69 0 115 -43t46 -106q0 -95 -74 -169.5t-171 -74.5q-67 0 -113.5 46t-46.5 112zM655 1323q0 -35 22 -57.5t56 -22.5q45 0 83 37t38 80q0 34 -22 57t-54 23q-47 0 -85 -37t-38 -80z" />
<glyph unicode="&#xe6;" horiz-adv-x="1820" d="M18 215q0 89 45 167t123 128q74 46 162 65.5t293 38.5q109 9 150.5 34t54.5 91l10 52q4 28 4 38q0 54 -57.5 85.5t-155.5 31.5q-122 0 -189.5 -44.5t-99.5 -145.5h-172q25 89 48.5 137.5t60.5 85.5q61 60 164 92.5t231 32.5q113 0 207 -38t119 -95q69 62 169 97.5 t204 35.5q157 0 270 -102.5t113 -243.5q0 -86 -29 -244l-6 -35h-791q-10 -46 -10 -108v-37q3 -75 74 -141t186 -66q100 0 180 52t133 147h172q-46 -157 -190 -257t-328 -100q-123 0 -209.5 51t-146.5 158q-103 -100 -232 -154.5t-262 -54.5q-136 0 -215.5 64t-79.5 182z M201 244q0 -127 186 -127q129 0 243 71.5t134 163.5l37 174q-58 -21 -99.5 -29t-191.5 -28q-166 -23 -237.5 -76.5t-71.5 -148.5zM983 627h602q6 47 6 67q0 116 -63.5 184t-171.5 68q-128 0 -227 -84.5t-146 -234.5z" />
<glyph unicode="&#xe7;" horiz-adv-x="1024" d="M55 356q0 215 77 385t219.5 266.5t326.5 96.5q157 0 255.5 -89.5t98.5 -211.5q0 -3 -0.5 -10.5l-1.5 -22.5t-2 -27l-2 -30h-172q2 18 2 45q0 88 -56 138t-153 50q-119 0 -214.5 -81.5t-146 -210.5t-50.5 -275q0 -119 63 -185.5t170 -66.5q229 0 317 242h172 q-59 -201 -175 -295.5t-298 -102.5l-43 -82h43q56 0 97 -42t41 -95q0 -104 -82.5 -163.5t-214.5 -59.5q-59 0 -111.5 15t-130.5 55l57 77q115 -59 193 -59q57 0 93 31.5t36 81.5q0 34 -18.5 55.5t-45.5 21.5q-29 0 -55 -8l-47 13l84 161q-151 19 -238.5 123.5t-87.5 259.5z " />
<glyph unicode="&#xe8;" d="M72 362q0 124 49 274t121 247q76 103 197 162t255 59q166 0 278.5 -101t112.5 -249q0 -88 -28 -240l-4 -27h-791q-13 -49 -10 -94q0 -129 66.5 -197.5t189.5 -68.5q101 0 181.5 52t133.5 147h172q-47 -164 -188.5 -260.5t-327.5 -96.5q-182 0 -294.5 114t-112.5 279z M299 635h602q4 50 4 59q0 116 -64 184t-173 68q-124 0 -227.5 -87.5t-141.5 -223.5zM420 1493h229l133 -303h-123z" />
<glyph unicode="&#xe9;" d="M72 362q0 124 49 274t121 247q76 103 197 162t255 59q166 0 278.5 -101t112.5 -249q0 -88 -28 -240l-4 -27h-791q-13 -49 -10 -94q0 -129 66.5 -197.5t189.5 -68.5q101 0 181.5 52t133.5 147h172q-47 -164 -188.5 -260.5t-327.5 -96.5q-182 0 -294.5 114t-112.5 279z M299 635h602q4 50 4 59q0 116 -64 184t-173 68q-124 0 -227.5 -87.5t-141.5 -223.5zM657 1190l263 303h229l-369 -303h-123z" />
<glyph unicode="&#xea;" d="M72 362q0 124 49 274t121 247q76 103 197 162t255 59q166 0 278.5 -101t112.5 -249q0 -88 -28 -240l-4 -27h-791q-13 -49 -10 -94q0 -129 66.5 -197.5t189.5 -68.5q101 0 181.5 52t133.5 147h172q-47 -164 -188.5 -260.5t-327.5 -96.5q-182 0 -294.5 114t-112.5 279z M299 635h602q4 50 4 59q0 116 -64 184t-173 68q-124 0 -227.5 -87.5t-141.5 -223.5zM424 1188l262 307h195l131 -307h-129l-115 203l-213 -203h-131z" />
<glyph unicode="&#xeb;" d="M72 362q0 124 49 274t121 247q76 103 197 162t255 59q166 0 278.5 -101t112.5 -249q0 -88 -28 -240l-4 -27h-791q-13 -49 -10 -94q0 -129 66.5 -197.5t189.5 -68.5q101 0 181.5 52t133.5 147h172q-47 -164 -188.5 -260.5t-327.5 -96.5q-182 0 -294.5 114t-112.5 279z M299 635h602q4 50 4 59q0 116 -64 184t-173 68q-124 0 -227.5 -87.5t-141.5 -223.5zM469 1237l45 209h186l-45 -209h-186zM801 1237l45 209h186l-45 -209h-186z" />
<glyph unicode="&#xec;" horiz-adv-x="569" d="M96 0l228 1073h172l-228 -1073h-172zM160 1493h229l133 -303h-123z" />
<glyph unicode="&#xed;" horiz-adv-x="569" d="M96 0l228 1073h172l-228 -1073h-172zM350 1190l262 303h230l-369 -303h-123z" />
<glyph unicode="&#xee;" horiz-adv-x="569" d="M96 0l228 1073h172l-228 -1073h-172zM139 1188l262 307h195l131 -307h-129l-115 203l-213 -203h-131z" />
<glyph unicode="&#xef;" horiz-adv-x="569" d="M96 0l228 1073h172l-228 -1073h-172zM184 1237l45 209h187l-45 -209h-187zM516 1237l45 209h187l-46 -209h-186z" />
<glyph unicode="&#xf0;" d="M66 352q-1 111 24 219.5t75.5 202.5t120.5 165.5t165 113t202 41.5q40 0 66.5 -6.5t68.5 -28.5q-49 63 -82 99.5t-90 88.5l-204 -92l-66 80l182 84q-23 20 -35 29t-18.5 12t-32 20.5t-67.5 49.5l86 92l45 -29q40 -24 65.5 -40t35.5 -23t30 -22t33 -24l202 89l80 -78 l-194 -84q319 -273 319 -600q0 -204 -77.5 -373t-219.5 -269t-319 -100q-182 0 -288.5 108t-106.5 275zM246 393q0 -123 63 -194.5t172 -71.5q119 0 215 75t148.5 201.5t52.5 278.5q0 125 -63 194.5t-177 69.5q-118 0 -213 -76.5t-146.5 -202.5t-51.5 -274z" />
<glyph unicode="&#xf1;" d="M41 0l227 1073h156l-27 -133q159 164 398 164q127 0 202.5 -69.5t75.5 -186.5q0 -42 -8 -78l-164 -770h-172l152 715q12 66 12 76q0 71 -51 118t-127 47q-138 0 -240 -98t-137 -266l-125 -592h-172zM387 1231q38 113 88 162t125 49q14 0 132.5 -33t146.5 -33 q30 0 50 15.5t48 60.5h108q-32 -100 -92 -159.5t-129 -59.5q-34 0 -74.5 10t-136.5 43q-34 12 -55 12q-35 0 -53.5 -13.5t-48.5 -53.5h-109z" />
<glyph unicode="&#xf2;" d="M63 344q0 152 43.5 290t122 242.5t196.5 166t259 61.5q180 0 286.5 -108t106.5 -275q0 -212 -77.5 -383t-220.5 -270t-326 -99q-173 0 -281.5 103t-108.5 272zM244 385q0 -122 63.5 -190t173.5 -68q119 0 215 75t148.5 201.5t52.5 278.5q0 125 -63 194.5t-177 69.5 q-118 0 -213.5 -78.5t-147.5 -206.5t-52 -276zM401 1493h230l133 -303h-123z" />
<glyph unicode="&#xf3;" d="M63 344q0 152 43.5 290t122 242.5t196.5 166t259 61.5q180 0 286.5 -108t106.5 -275q0 -212 -77.5 -383t-220.5 -270t-326 -99q-173 0 -281.5 103t-108.5 272zM244 385q0 -122 63.5 -190t173.5 -68q119 0 215 75t148.5 201.5t52.5 278.5q0 125 -63 194.5t-177 69.5 q-118 0 -213.5 -78.5t-147.5 -206.5t-52 -276zM639 1190l262 303h229l-368 -303h-123z" />
<glyph unicode="&#xf4;" d="M63 344q0 152 43.5 290t122 242.5t196.5 166t259 61.5q180 0 286.5 -108t106.5 -275q0 -212 -77.5 -383t-220.5 -270t-326 -99q-173 0 -281.5 103t-108.5 272zM244 385q0 -122 63.5 -190t173.5 -68q119 0 215 75t148.5 201.5t52.5 278.5q0 125 -63 194.5t-177 69.5 q-118 0 -213.5 -78.5t-147.5 -206.5t-52 -276zM406 1188l262 307h194l131 -307h-129l-114 203l-213 -203h-131z" />
<glyph unicode="&#xf5;" d="M63 344q0 152 43.5 290t122 242.5t196.5 166t259 61.5q180 0 286.5 -108t106.5 -275q0 -212 -77.5 -383t-220.5 -270t-326 -99q-173 0 -281.5 103t-108.5 272zM244 385q0 -122 63.5 -190t173.5 -68q119 0 215 75t148.5 201.5t52.5 278.5q0 125 -63 194.5t-177 69.5 q-118 0 -213.5 -78.5t-147.5 -206.5t-52 -276zM369 1231q38 113 88 162t125 49q14 0 132 -33t146 -33q30 0 50 15.5t48 60.5h109q-32 -100 -92 -159.5t-129 -59.5q-34 0 -74.5 10t-136.5 43q-35 12 -55 12q-35 0 -54 -13.5t-49 -53.5h-108z" />
<glyph unicode="&#xf6;" d="M63 344q0 152 43.5 290t122 242.5t196.5 166t259 61.5q180 0 286.5 -108t106.5 -275q0 -212 -77.5 -383t-220.5 -270t-326 -99q-173 0 -281.5 103t-108.5 272zM244 385q0 -122 63.5 -190t173.5 -68q119 0 215 75t148.5 201.5t52.5 278.5q0 125 -63 194.5t-177 69.5 q-118 0 -213.5 -78.5t-147.5 -206.5t-52 -276zM451 1237l45 209h186l-45 -209h-186zM782 1237l45 209h187l-45 -209h-187z" />
<glyph unicode="&#xf7;" horiz-adv-x="1196" d="M139 442v140h918v-140h-918zM492 139q0 43 31 75t75 32t75.5 -32t31.5 -75q0 -44 -31.5 -75t-75.5 -31t-75 31t-31 75zM492 885q0 44 31 75t75 31t75.5 -31t31.5 -75q0 -43 -31.5 -75t-75.5 -32t-75 32t-31 75z" />
<glyph unicode="&#xf8;" horiz-adv-x="1251" d="M-20 43l124 119q-41 77 -41 182q0 152 43.5 290t122 242.5t196.5 166t259 61.5q188 0 297 -119l119 109l61 -64l-127 -121q43 -82 43 -188q0 -212 -77.5 -383t-220.5 -270t-326 -99q-184 0 -295 117l-115 -106zM244 385q0 -52 10 -86l594 559q-63 88 -191 88 q-118 0 -213.5 -78.5t-147.5 -206.5t-52 -276zM293 213q64 -86 188 -86q119 0 215 75t148.5 201.5t52.5 278.5q0 42 -10 90z" />
<glyph unicode="&#xf9;" d="M82 193q0 39 6 69l172 811h172l-158 -743q-6 -30 -6 -56q0 -72 50 -114.5t133 -42.5q131 0 231 99.5t135 264.5l125 592h172l-227 -1073h-156l27 125q-89 -81 -182 -118.5t-211 -37.5q-132 0 -207.5 60t-75.5 164zM420 1493h229l133 -303h-123z" />
<glyph unicode="&#xfa;" d="M82 193q0 39 6 69l172 811h172l-158 -743q-6 -30 -6 -56q0 -72 50 -114.5t133 -42.5q131 0 231 99.5t135 264.5l125 592h172l-227 -1073h-156l27 125q-89 -81 -182 -118.5t-211 -37.5q-132 0 -207.5 60t-75.5 164zM657 1190l263 303h229l-369 -303h-123z" />
<glyph unicode="&#xfb;" d="M82 193q0 39 6 69l172 811h172l-158 -743q-6 -30 -6 -56q0 -72 50 -114.5t133 -42.5q131 0 231 99.5t135 264.5l125 592h172l-227 -1073h-156l27 125q-89 -81 -182 -118.5t-211 -37.5q-132 0 -207.5 60t-75.5 164zM424 1188l262 307h195l131 -307h-129l-115 203 l-213 -203h-131z" />
<glyph unicode="&#xfc;" d="M82 193q0 39 6 69l172 811h172l-158 -743q-6 -30 -6 -56q0 -72 50 -114.5t133 -42.5q131 0 231 99.5t135 264.5l125 592h172l-227 -1073h-156l27 125q-89 -81 -182 -118.5t-211 -37.5q-132 0 -207.5 60t-75.5 164zM469 1237l45 209h186l-45 -209h-186zM801 1237l45 209 h186l-45 -209h-186z" />
<glyph unicode="&#xfd;" horiz-adv-x="1024" d="M-86 -426l33 154q83 -9 90 -9q57 0 90 21.5t74 85.5l106 166l-139 1081h184l94 -833l478 833h182l-754 -1298q-66 -114 -147.5 -167.5t-190.5 -53.5q-54 0 -100 20zM600 1190l262 303h230l-369 -303h-123z" />
<glyph unicode="&#xfe;" d="M-88 -436l410 1929h172l-125 -592q46 89 150.5 146t221.5 57q164 0 260.5 -107.5t96.5 -291.5q1 -146 -42.5 -280.5t-121 -235t-190 -160.5t-240.5 -60q-109 0 -177.5 43.5t-115.5 143.5l-127 -592h-172zM276 393q0 -123 65.5 -194.5t178.5 -71.5q112 0 205.5 79t144 202 t48.5 256q0 132 -64.5 207t-179.5 75q-110 0 -202 -77.5t-144 -204.5t-52 -271z" />
<glyph unicode="&#xff;" horiz-adv-x="1024" d="M-86 -426l33 154q83 -9 90 -9q57 0 90 21.5t74 85.5l106 166l-139 1081h184l94 -833l478 833h182l-754 -1298q-66 -114 -147.5 -167.5t-190.5 -53.5q-54 0 -100 20zM412 1237l45 209h186l-45 -209h-186zM743 1237l45 209h187l-45 -209h-187z" />
<glyph unicode="&#x152;" horiz-adv-x="2048" d="M104 449q0 175 41 338.5t116 295t174.5 230t222.5 152t255 53.5q128 0 210.5 -43.5t129.5 -137.5l33 156h881l-35 -168h-688l-105 -487h670l-37 -168h-667l-109 -502h696l-34 -168h-889l37 174q-88 -107 -189 -156t-235 -49q-216 0 -347 129t-131 351zM301 455 q0 -154 86 -237t236 -83q255 0 430 254l151 715q-29 126 -108.5 187t-214.5 61q-134 0 -244 -71.5t-188 -209.5q-61 -107 -104.5 -287.5t-43.5 -328.5z" />
<glyph unicode="&#x153;" horiz-adv-x="1933" d="M76 354q0 125 42 265.5t111 244.5q77 116 195.5 178t263.5 62q261 0 352 -211q66 91 192.5 151t252.5 60q166 0 278.5 -101t112.5 -249q0 -82 -29 -240l-6 -35h-790q-15 -79 -15 -119q3 -103 74.5 -168t189.5 -65q100 0 180.5 52t133.5 147h172q-46 -157 -190 -257 t-328 -100q-119 0 -217.5 55t-143.5 164q-77 -103 -193 -161t-249 -58q-183 0 -286 109.5t-103 275.5zM256 387q0 -120 61.5 -190t167.5 -70q118 0 212 73.5t146 200.5t52 283q0 123 -63.5 192.5t-174.5 69.5q-110 0 -203.5 -75.5t-146.5 -204.5t-51 -279zM1087 627h603 q6 44 6 65q0 116 -64 185t-170 69q-126 0 -230.5 -89t-144.5 -230z" />
<glyph unicode="&#x178;" horiz-adv-x="1366" d="M242 1493h229l279 -731l591 731h228l-754 -907l-125 -586h-192l125 586zM682 1636l45 209h186l-45 -209h-186zM1014 1636l45 209h186l-45 -209h-186z" />
<glyph unicode="&#x2c6;" horiz-adv-x="681" d="M197 1188l262 307h194l131 -307h-129l-114 203l-213 -203h-131z" />
<glyph unicode="&#x2dc;" horiz-adv-x="681" d="M160 1231q38 113 88 162t125 49q14 0 132 -33t146 -33q31 0 51 15.5t48 60.5h108q-32 -100 -92 -159.5t-129 -59.5q-34 0 -74.5 10t-136.5 43q-34 12 -55 12q-35 0 -54 -13.5t-49 -53.5h-108z" />
<glyph unicode="&#x2000;" horiz-adv-x="984" />
<glyph unicode="&#x2001;" horiz-adv-x="1968" />
<glyph unicode="&#x2002;" horiz-adv-x="984" />
<glyph unicode="&#x2003;" horiz-adv-x="1968" />
<glyph unicode="&#x2004;" horiz-adv-x="656" />
<glyph unicode="&#x2005;" horiz-adv-x="492" />
<glyph unicode="&#x2006;" horiz-adv-x="328" />
<glyph unicode="&#x2007;" horiz-adv-x="328" />
<glyph unicode="&#x2008;" horiz-adv-x="246" />
<glyph unicode="&#x2009;" horiz-adv-x="393" />
<glyph unicode="&#x200a;" horiz-adv-x="109" />
<glyph unicode="&#x2010;" horiz-adv-x="681" d="M96 492l31 147h489l-30 -147h-490z" />
<glyph unicode="&#x2011;" horiz-adv-x="681" d="M96 492l31 147h489l-30 -147h-490z" />
<glyph unicode="&#x2012;" horiz-adv-x="681" d="M96 492l31 147h489l-30 -147h-490z" />
<glyph unicode="&#x2013;" d="M-8 492l31 147h1161l-31 -147h-1161z" />
<glyph unicode="&#x2014;" horiz-adv-x="2048" d="M-16 492l30 147h2071l-31 -147h-2070z" />
<glyph unicode="&#x2018;" horiz-adv-x="454" d="M231 977l43 205q26 124 93 194t161 76l-16 -80q-58 -6 -91 -49t-50 -135h96l-45 -211h-191z" />
<glyph unicode="&#x2019;" horiz-adv-x="454" d="M238 977l16 78q56 8 89 52t48 132h-98l45 211h192l-43 -205q-26 -122 -91 -192t-158 -76z" />
<glyph unicode="&#x201a;" horiz-adv-x="454" d="M-27 -262l17 78q56 8 89 52t48 132h-98l45 211h192l-43 -205q-26 -122 -91.5 -192t-158.5 -76z" />
<glyph unicode="&#x201c;" horiz-adv-x="681" d="M197 977l43 205q25 121 89.5 191.5t157.5 78.5l-16 -80q-55 -8 -87.5 -52t-47.5 -132h96l-45 -211h-190zM526 977l43 205q25 121 90 191.5t158 78.5l-16 -80q-55 -7 -87.5 -50.5t-49.5 -133.5h98l-45 -211h-191z" />
<glyph unicode="&#x201d;" horiz-adv-x="681" d="M205 977l16 78q56 8 89 52t48 132h-98l45 211h193l-43 -205q-26 -122 -91.5 -192t-158.5 -76zM530 977l17 78q56 8 89 52t48 132h-98l45 211h192l-43 -205q-26 -122 -91.5 -192t-158.5 -76z" />
<glyph unicode="&#x201e;" horiz-adv-x="681" d="M-61 -262l16 78q56 8 89 52t48 132h-98l45 211h192l-43 -205q-26 -122 -91 -192t-158 -76zM264 -262l17 78q56 8 89 52t48 132h-99l46 211h192l-43 -205q-26 -122 -91.5 -192t-158.5 -76z" />
<glyph unicode="&#x2022;" horiz-adv-x="716" d="M143 651q0 121 96.5 216.5t219.5 95.5q92 0 150.5 -56t58.5 -145q0 -121 -97.5 -216t-222.5 -95q-86 0 -145.5 57.5t-59.5 142.5z" />
<glyph unicode="&#x2026;" horiz-adv-x="2048" d="M133 0l45 211h213l-45 -211h-213zM815 0l45 211h213l-45 -211h-213zM1497 0l45 211h213l-45 -211h-213z" />
<glyph unicode="&#x202f;" horiz-adv-x="393" />
<glyph unicode="&#x2039;" horiz-adv-x="681" d="M184 465l39 182l363 250l-37 -170l-248 -172l176 -170l-37 -168z" />
<glyph unicode="&#x203a;" horiz-adv-x="681" d="M121 217l37 170l252 172l-181 170l37 168l260 -248l-39 -182z" />
<glyph unicode="&#x205f;" horiz-adv-x="492" />
<glyph unicode="&#x20ac;" d="M-78 520l72 121h112q9 53 33 135h-162l72 121h129q96 252 267.5 403.5t390.5 151.5q106 0 192 -32.5t172 -104.5l-100 -164q-93 81 -161 113t-148 32q-134 0 -235.5 -94.5t-193.5 -304.5h584l-74 -121h-553q-20 -60 -30 -135h504l-74 -121h-440v-28q0 -363 262 -363 q75 0 151 26t215 99l-41 -191q-175 -94 -364 -94q-410 0 -410 492q0 36 2 59h-172z" />
<glyph unicode="&#x2122;" horiz-adv-x="2048" d="M434 1389l23 104h698l-22 -104h-283l-150 -701h-127l148 701h-287zM1116 688l172 805h166l109 -664l389 664h170l-170 -805h-123l133 621l-365 -621h-127l-100 621l-131 -621h-123z" />
<glyph unicode="&#xe000;" horiz-adv-x="1075" d="M0 0v1075h1075v-1075h-1075z" />
</font>
</defs>
</svg>
